<svg width="239" height="195" viewBox="0 0 239 195" fill="none" xmlns="http://www.w3.org/2000/svg">
<mask id="mask0_37_1145" style="mask-type:luminance" maskUnits="userSpaceOnUse" x="92" y="19" width="12" height="12">
<path d="M92.0831 19.0737H103.983V30.93H92.0831V19.0737Z" fill="white"/>
</mask>
<g mask="url(#mask0_37_1145)">
<path d="M97.703 30.2577C100.632 30.2577 103.002 27.7181 103.002 24.591C103.002 23.6249 102.779 22.7187 102.379 21.9219C102.379 21.9568 102.384 21.9867 102.384 22.0215C102.384 24.1428 100.771 25.8657 98.7861 25.8657C96.8059 25.8657 95.1929 24.1428 95.1929 22.0215C95.1929 20.8414 95.6949 19.7807 96.4805 19.0786C94.1423 19.6662 92.4038 21.912 92.4038 24.591C92.4038 27.7181 94.7792 30.2577 97.703 30.2577Z" fill="#222221"/>
</g>
<path d="M117.202 114.565C116.925 114.56 116.695 114.796 116.69 115.093C116.685 115.39 116.906 115.636 117.184 115.642C117.466 115.647 117.691 115.41 117.696 115.113C117.701 114.817 117.48 114.57 117.202 114.565Z" fill="#222221"/>
<path d="M122.232 111.335C121.953 111.321 121.724 111.798 121.72 112.39C121.714 112.99 121.936 113.481 122.215 113.488C122.491 113.502 122.72 113.026 122.726 112.433C122.73 111.834 122.511 111.343 122.232 111.335Z" fill="#222221"/>
<mask id="mask1_37_1145" style="mask-type:luminance" maskUnits="userSpaceOnUse" x="123" y="108" width="3" height="4">
<path d="M123.023 108.69H125.64V111.24H123.023V108.69Z" fill="white"/>
</mask>
<g mask="url(#mask1_37_1145)">
<path d="M124.803 109.278C124.343 109.273 123.967 109.662 123.957 110.15C123.953 110.643 124.315 111.046 124.775 111.056C125.231 111.066 125.612 110.672 125.617 110.184C125.626 109.691 125.263 109.288 124.803 109.278Z" fill="#222221"/>
</g>
<path d="M122.739 107.029C122.186 107.015 121.727 107.494 121.721 108.088C121.708 108.682 122.154 109.175 122.708 109.181C123.261 109.195 123.72 108.722 123.732 108.122C123.739 107.528 123.299 107.035 122.739 107.029Z" fill="#222221"/>
<path d="M119.1 107.195C119.491 107.2 119.81 106.873 119.82 106.462C119.824 106.051 119.514 105.714 119.124 105.709C118.776 105.699 118.484 105.957 118.419 106.298C118.042 105.095 117.647 103.897 117.238 102.699C117.356 102.53 117.431 102.327 117.436 102.1C117.445 101.604 117.116 101.184 116.674 101.075C116.044 99.2773 115.395 97.4948 114.751 95.7123C113.937 93.4792 113.11 91.2461 112.466 88.9536C111.854 86.7651 111.422 84.527 111.083 82.2791C110.397 77.7782 110.053 73.2229 109.212 68.7518C109.09 68.1032 108.958 67.4545 108.812 66.8108C108.676 66.2216 108.572 65.5878 108.365 65.0234C108.253 64.7114 108.083 64.4193 107.923 64.1321C107.152 62.7606 106.113 61.4237 104.731 60.7057C104.444 58.7252 104.364 56.6901 103.983 54.7442C103.814 53.9025 103.588 53.0756 103.268 52.2834C102.906 51.3772 102.398 50.5652 101.862 49.7581C100.786 48.1539 99.8734 46.4852 99.1963 44.6483C98.4345 42.5984 97.9314 40.4495 97.5458 38.2906C97.5317 38.1966 97.4236 38.1173 97.3342 38.1223C96.6242 38.157 95.9518 38.5184 95.5098 39.1076C94.9643 39.8305 94.9267 40.801 94.9032 41.6873C94.8374 43.8956 95.317 46.0842 95.9612 48.1737C96.0364 48.4262 96.1164 48.6738 96.201 48.9263C93.9816 47.4062 91.2685 46.9309 88.9456 45.6534C88.8375 45.4454 88.6306 45.2969 88.3861 45.292C88.372 45.292 88.3626 45.2969 88.3485 45.2969C88.0193 45.0889 87.6996 44.8612 87.3939 44.6037C87.3046 44.5294 87.1729 44.5047 87.0836 44.6037C86.3312 45.4355 86.0773 46.6734 86.4441 47.7578C86.8767 49.0303 88.0334 49.6492 89.0961 50.2582C91.5976 51.704 94.4001 52.8429 96.1634 55.3334C96.2527 55.4622 96.3374 55.5959 96.4267 55.7295C93.0506 55.1948 89.7168 54.4174 86.4441 53.4073C86.6087 53.2588 86.7121 53.0409 86.7168 52.7934C86.7262 52.3378 86.3783 51.9615 85.9457 51.9516C85.5084 51.9467 85.151 52.3081 85.1416 52.7686C85.1416 52.8924 85.1698 53.0112 85.2121 53.1152C85.1651 53.1598 85.1322 53.2291 85.1228 53.2984C84.9582 54.6501 85.4331 55.9177 86.2936 56.8139C86.2889 56.8436 86.2842 56.8733 86.2795 56.903C86.2748 57.2298 86.524 57.5022 86.8391 57.5121C86.9237 57.5121 86.9989 57.4923 87.0742 57.4625C87.408 57.6755 87.7748 57.8488 88.1651 57.9676C89.4487 58.3489 90.7606 58.6113 92.0255 59.0718C93.3186 59.5421 94.4565 60.2898 95.5427 61.1514C96.5866 61.9733 97.9925 62.8893 98.3123 64.3153C98.3358 64.4242 98.3922 64.6174 98.4721 64.6223C98.3734 65.1868 98.2558 65.7364 98.1195 66.2761C97.4659 65.8602 96.3844 65.7809 95.6697 65.7265C94.6728 65.6522 93.676 65.5779 92.6838 65.5037C90.6901 65.3551 88.6964 65.2066 86.7027 65.058C86.5616 65.0481 86.4535 65.2115 86.4911 65.3502C87.0272 67.1871 88.4284 68.6676 90.1823 69.2222C92.2559 69.8807 94.4377 70.0738 96.2809 71.3513C96.0929 71.7573 95.8907 72.1584 95.6838 72.5545C95.2042 73.4507 94.701 74.3568 94.1133 75.1787C94.0004 75.3372 93.8734 75.4808 93.7465 75.6343C93.6619 75.7382 93.455 76.0898 93.3092 76.1839C93.3374 76.1393 93.0976 76.0997 93.1775 76.1195C93.0412 76.0848 92.886 76.0799 92.7496 76.0452C92.5474 76.0007 92.35 75.9413 92.1572 75.867C91.7058 75.6937 91.2826 75.4461 90.8923 75.1589C90.0788 74.5648 89.4911 73.7775 88.8234 73.0249C88.1322 72.2425 87.3704 71.5345 86.651 70.7819C86.6839 70.7076 86.7074 70.6234 86.7074 70.5393C86.7121 70.2224 86.4723 69.9599 86.1714 69.955C86.0914 69.95 86.0115 69.9698 85.941 70.0045C85.4002 69.3608 84.883 68.7023 84.1871 68.222C82.6542 67.1574 80.8533 67.3357 79.532 68.6825C79.4849 68.7369 79.4473 68.836 79.4755 68.9053C80.9238 72.5297 83.3971 75.5105 85.8093 78.4566C87.2058 80.1599 88.5977 81.8632 89.9942 83.5664C91.0099 84.8093 92.002 86.0818 93.1164 87.2256C92.9048 87.2998 92.7496 87.5078 92.7449 87.7554C92.7402 88.0673 92.9753 88.3248 93.2763 88.3297C93.5302 88.3347 93.7465 88.1515 93.8029 87.8989C93.8782 87.9732 93.9534 88.0475 94.0333 88.1168C95.3546 89.3002 96.8499 90.241 98.2558 91.3154C99.7605 92.4642 101.035 93.7911 101.952 95.5043C102.892 97.2522 103.518 99.1733 104.19 101.05C104.9 103.045 105.591 105.051 106.146 107.106C106.776 109.448 107.199 111.829 107.34 114.265C107.486 116.776 107.401 119.291 107.312 121.801C107.303 122.093 107.74 122.093 107.749 121.801C107.905 117.38 107.966 112.988 106.983 108.66C106.517 106.61 105.887 104.61 105.21 102.629C104.552 100.723 103.898 98.7921 103.113 96.9353C102.389 95.2072 101.458 93.6079 100.127 92.3206C98.853 91.0827 97.3671 90.1271 95.9518 89.0823C94.3437 87.894 92.98 86.4927 91.6917 84.938C90.8641 83.9378 90.0412 82.9327 89.223 81.9275C89.6039 81.9028 89.9096 81.576 89.9143 81.165C89.9237 80.7392 89.5992 80.3827 89.1901 80.3777C88.8328 80.3678 88.5271 80.6303 88.4519 80.9868C88.1698 80.6352 87.8829 80.2886 87.5961 79.9371C84.7936 76.5107 81.6667 73.114 79.9505 68.9053C80.5429 68.3359 81.2718 67.9497 82.0899 67.9546C82.9551 67.9596 83.7686 68.3903 84.4175 68.9697C84.8736 69.3707 85.2592 69.851 85.6541 70.3263C85.6306 70.3858 85.6165 70.4501 85.6165 70.5145C85.6118 70.8314 85.8516 71.0938 86.1526 71.0988C86.209 71.0988 86.2607 71.0889 86.3124 71.074C86.3171 71.0839 86.3218 71.0889 86.3312 71.0938C87.0554 71.8514 87.8218 72.5594 88.5177 73.3467C89.1196 74.03 89.6603 74.743 90.3657 75.3174C91.0381 75.8571 91.7998 76.2978 92.6321 76.4859C92.886 76.5453 93.3609 76.6939 93.5866 76.5255C93.7418 76.4067 93.8829 76.169 94.0098 76.0205C94.4142 75.5303 94.7574 75.0203 95.0913 74.4756C95.6744 73.5299 96.2104 72.5446 96.69 71.5295L96.817 71.2572C97.9502 68.7914 98.7496 66.1473 99.1022 63.434C99.3514 61.5128 99.3749 59.5669 99.1304 57.6457C98.853 55.4919 98.2088 53.4321 97.5082 51.3971C96.7041 49.0649 95.8483 46.7279 95.4957 44.2621C95.3123 42.9895 95.2418 41.6428 95.4487 40.3702C95.6038 39.4493 96.2856 38.7313 97.1649 38.6026C97.842 42.3459 98.9188 46.0594 100.983 49.2333C101.529 50.075 102.121 50.8871 102.572 51.7932C102.972 52.6003 103.249 53.4667 103.452 54.3481C103.861 56.1207 103.969 57.9478 104.181 59.76C104.223 60.1165 104.27 60.478 104.326 60.8394C104.317 60.879 104.326 60.9186 104.345 60.9583C104.575 62.4882 104.938 63.9885 105.648 65.365C105.779 65.6225 106.155 65.3947 106.024 65.1323C105.394 63.9142 105.05 62.612 104.825 61.2751C105.93 61.9584 106.785 63.0478 107.448 64.1866C107.627 64.4936 107.825 64.8204 107.956 65.1571C108.064 65.4541 108.121 65.7908 108.196 66.1028C108.332 66.6524 108.455 67.202 108.572 67.7566C109.494 72.1683 109.861 76.6741 110.477 81.1303C110.792 83.3783 111.168 85.6213 111.718 87.8247C112.268 90.0429 113.016 92.2017 113.792 94.3457C114.6 96.5887 115.423 98.8267 116.213 101.075C115.79 101.189 115.47 101.58 115.466 102.06C115.456 102.634 115.889 103.105 116.434 103.115C116.594 103.12 116.749 103.075 116.886 103.006C117.342 104.348 117.784 105.694 118.202 107.056C119.688 111.874 120.864 116.82 121.282 121.881C121.31 122.173 121.743 122.178 121.719 121.881C121.296 116.781 120.125 111.844 118.64 106.997C118.762 107.115 118.922 107.19 119.1 107.195ZM96.4737 70.9354C94.7951 69.7767 92.7779 69.4153 90.85 68.93C89.1008 68.4894 87.6478 67.3208 87.0177 65.5433C88.8093 65.677 90.6055 65.8106 92.397 65.9443C93.3233 66.0137 94.2496 66.083 95.1712 66.1523C95.9988 66.2117 97.2872 66.2117 97.9972 66.7415C97.6116 68.1725 97.1038 69.5539 96.4737 70.9354ZM98.6132 63.7855C98.2652 62.8596 97.5129 62.1813 96.77 61.5722C95.7637 60.7453 94.748 59.9036 93.6101 59.2847C92.444 58.6509 91.1697 58.2944 89.9049 57.9676C89.0491 57.7448 88.1463 57.5764 87.3751 57.1358C87.3986 57.0664 87.4174 56.9971 87.4174 56.9228C87.4221 56.596 87.1729 56.3237 86.8579 56.3188C86.7309 56.3138 86.6134 56.3584 86.5193 56.4327C85.8422 55.6701 85.4896 54.6452 85.5366 53.6004C89.0773 54.7343 92.6838 55.6008 96.3421 56.1752L96.77 56.2891C97.5458 57.5616 97.9314 58.7054 98.4674 60.1017C98.4815 60.1363 98.5003 60.171 98.5191 60.2007L98.8624 60.7651C98.8436 61.7802 98.759 62.7903 98.6132 63.7855ZM96.422 49.5848C96.9816 51.2535 97.5928 52.8973 98.0583 54.5957C98.5333 56.3287 98.8107 58.0963 98.8577 59.8937C98.3358 58.542 97.8044 57.1853 97.0803 55.9425C96.3703 54.7294 95.4675 53.7044 94.3766 52.8627C93.2857 52.0259 92.0819 51.3772 90.8829 50.7336C90.2763 50.4018 89.665 50.075 89.0679 49.7235C88.5177 49.3967 87.9017 49.0699 87.4503 48.5995C86.5475 47.6538 86.4817 46.104 87.2764 45.079C87.4786 45.2375 87.6855 45.3811 87.897 45.5247C87.7936 45.6435 87.7278 45.797 87.7231 45.9703C87.7184 46.3516 88.0052 46.6635 88.3673 46.6684C88.6682 46.6734 88.9221 46.4605 89.002 46.1684C91.386 47.3963 94.1133 47.9014 96.3044 49.5502C96.3421 49.5799 96.3844 49.5848 96.422 49.5848Z" fill="#0DC9FD"/>
<path d="M121.21 99.4916C121.488 99.4978 121.717 99.2614 121.72 98.9627C121.726 98.664 121.506 98.4183 121.227 98.4152C120.949 98.4089 120.72 98.6454 120.714 98.944C120.709 99.2427 120.932 99.4885 121.21 99.4916Z" fill="#222221"/>
<path d="M120.714 96.7904C120.708 97.0869 120.931 97.3319 121.208 97.3383C121.485 97.3416 121.714 97.1063 121.72 96.8097C121.726 96.5132 121.503 96.2682 121.226 96.2618C120.949 96.2585 120.72 96.4938 120.714 96.7904Z" fill="#222221"/>
<path d="M115.172 96.2615C115.45 96.2727 115.679 95.7986 115.684 95.2074C115.687 94.6106 115.466 94.1197 115.19 94.1086C114.912 94.0974 114.683 94.5715 114.678 95.1683C114.673 95.7595 114.894 96.2559 115.172 96.2615Z" fill="#222221"/>
<path d="M117.186 93.0316C117.464 93.037 117.691 92.8002 117.696 92.5041C117.701 92.2081 117.479 91.9605 117.201 91.9551C116.923 91.9551 116.695 92.1865 116.69 92.4826C116.68 92.7787 116.903 93.0263 117.186 93.0316Z" fill="#222221"/>
<path d="M119.708 87.6298C119.703 88.2243 119.924 88.7125 120.201 88.725C120.478 88.7313 120.708 88.2619 120.714 87.6673C120.717 87.0727 120.496 86.5783 120.219 86.572C119.942 86.5595 119.714 87.0352 119.708 87.6298Z" fill="#222221"/>
<path d="M114.678 76.3545C114.683 76.0524 114.463 75.8053 114.188 75.8053C113.907 75.7998 113.677 76.0359 113.672 76.3325C113.672 76.6346 113.891 76.8762 114.167 76.8817C114.448 76.8872 114.673 76.6511 114.678 76.3545Z" fill="#222221"/>
<path d="M123.239 70.4219C122.961 70.4177 122.734 70.656 122.726 70.9496C122.723 71.2474 122.945 71.4942 123.223 71.4985C123.502 71.5027 123.728 71.2687 123.732 70.9708C123.74 70.673 123.518 70.4304 123.239 70.4219Z" fill="#222221"/>
<path d="M116.69 66.1013C116.687 66.6948 116.909 67.1847 117.185 67.1916C117.461 67.2054 117.69 66.7293 117.696 66.1358C117.702 65.5424 117.481 65.0524 117.201 65.0386C116.925 65.0317 116.697 65.501 116.69 66.1013Z" fill="#222221"/>
<path d="M120.203 63.9617C120.48 63.9741 120.709 63.4977 120.714 62.9037C120.717 62.3098 120.497 61.821 120.22 61.8087C119.94 61.8025 119.711 62.2727 119.708 62.8666C119.703 63.4605 119.925 63.9493 120.203 63.9617Z" fill="#222221"/>
<path d="M120.202 60.7317C120.481 60.7413 120.705 60.499 120.714 60.2081C120.723 59.9076 120.499 59.6556 120.22 59.6556C119.942 59.6459 119.717 59.8882 119.708 60.1888C119.708 60.4796 119.924 60.7317 120.202 60.7317Z" fill="#222221"/>
<path d="M107.125 61.8085C107.402 61.8137 107.631 61.5786 107.635 61.2807C107.64 60.9829 107.422 60.7372 107.145 60.732C106.868 60.7268 106.634 60.9619 106.629 61.2598C106.629 61.5577 106.848 61.8033 107.125 61.8085Z" fill="#222221"/>
<path d="M116.669 55.3485C117.225 55.3587 117.686 54.886 117.696 54.29C117.706 53.699 117.264 53.2058 116.707 53.1955C116.15 53.1852 115.694 53.6579 115.684 54.254C115.67 54.85 116.116 55.3382 116.669 55.3485Z" fill="#222221"/>
<path d="M107.635 54.8218C107.639 54.524 107.419 54.2786 107.142 54.2721C106.864 54.2656 106.636 54.5044 106.63 54.8021C106.623 55.0999 106.846 55.3452 107.123 55.3485C107.401 55.355 107.629 55.1162 107.635 54.8218Z" fill="#222221"/>
<path d="M108.642 51.5705C108.634 51.8684 108.857 52.1146 109.135 52.1186C109.414 52.1226 109.644 51.8882 109.647 51.5903C109.655 51.2924 109.432 51.0462 109.154 51.0422C108.876 51.0342 108.645 51.2726 108.642 51.5705Z" fill="#222221"/>
<path d="M109.136 51.0419C109.414 51.0494 109.644 50.5784 109.648 49.9804C109.651 49.3899 109.432 48.8965 109.153 48.889C108.875 48.8741 108.645 49.3525 108.642 49.943C108.638 50.5411 108.857 51.0344 109.136 51.0419Z" fill="#222221"/>
<path d="M113.16 46.7352C113.439 46.7415 113.672 46.4988 113.672 46.2064C113.678 45.9077 113.457 45.6588 113.178 45.6588C112.899 45.6526 112.672 45.889 112.666 46.1877C112.66 46.4864 112.881 46.729 113.16 46.7352Z" fill="#222221"/>
<path d="M110.654 45.1069C110.648 45.4096 110.874 45.6518 111.15 45.6586C111.427 45.6653 111.66 45.4231 111.66 45.1271C111.666 44.8311 111.446 44.5889 111.169 44.5822C110.886 44.5754 110.66 44.8109 110.654 45.1069Z" fill="#222221"/>
<path d="M107.142 43.5054C106.862 43.5015 106.633 43.7356 106.629 44.0359C106.626 44.3323 106.847 44.5781 107.123 44.582C107.399 44.5859 107.628 44.3518 107.635 44.0554C107.639 43.7551 107.418 43.5093 107.142 43.5054Z" fill="#222221"/>
<path d="M114.664 40.2754C115.219 40.2784 115.672 40.0449 115.684 39.7477C115.695 39.4505 115.253 39.2048 114.698 39.1988C114.142 39.1957 113.683 39.4323 113.672 39.7264C113.666 40.0236 114.108 40.2693 114.664 40.2754Z" fill="#222221"/>
<path d="M109.628 40.2752C110.185 40.2858 110.644 39.8108 110.654 39.2198C110.663 38.6235 110.22 38.1328 109.667 38.1222C109.11 38.1117 108.652 38.5866 108.642 39.1776C108.632 39.7739 109.076 40.2647 109.628 40.2752Z" fill="#222221"/>
<path d="M116.624 115.421C116.618 115.717 116.842 115.963 117.118 115.969C117.395 115.975 117.624 115.736 117.63 115.44C117.636 115.144 117.413 114.899 117.136 114.893C116.86 114.893 116.63 115.126 116.624 115.421Z" fill="#222221"/>
<path d="M107.125 35.9685C107.403 35.9815 107.629 35.5081 107.635 34.9114C107.639 34.3213 107.418 33.8285 107.14 33.8155C106.862 33.809 106.636 34.2824 106.629 34.879C106.626 35.4692 106.847 35.962 107.125 35.9685Z" fill="#222221"/>
<path d="M106.113 33.8152C106.389 33.8244 106.621 33.5832 106.629 33.2864C106.629 32.9895 106.406 32.7483 106.131 32.739C105.856 32.7298 105.632 32.971 105.623 33.2678C105.623 33.5647 105.838 33.8152 106.113 33.8152Z" fill="#222221"/>
<path d="M108.13 28.4319C108.411 28.441 108.641 28.2039 108.641 27.9029C108.65 27.602 108.428 27.3648 108.147 27.3557C107.866 27.3466 107.636 27.5837 107.636 27.8847C107.627 28.1856 107.849 28.4319 108.13 28.4319Z" fill="#222221"/>
<path d="M105.13 132.868C104.852 132.864 104.625 133.103 104.617 133.398C104.613 133.697 104.836 133.94 105.114 133.945C105.389 133.953 105.619 133.715 105.623 133.415C105.627 133.12 105.409 132.873 105.13 132.868Z" fill="#222221"/>
<path d="M109.648 131.806C109.653 131.214 109.431 130.721 109.153 130.715C108.877 130.703 108.647 131.174 108.642 131.771C108.639 132.363 108.858 132.857 109.136 132.868C109.412 132.874 109.642 132.404 109.648 131.806Z" fill="#222221"/>
<path d="M100.593 129.657C100.598 129.061 100.375 128.572 100.098 128.562C99.8198 128.551 99.5921 129.023 99.5871 129.619C99.5821 130.215 99.8023 130.704 100.08 130.715C100.358 130.725 100.588 130.253 100.593 129.657Z" fill="#222221"/>
<path d="M110.143 124.255C110.418 124.26 110.649 124.024 110.654 123.724C110.659 123.43 110.438 123.184 110.158 123.178C109.883 123.173 109.653 123.409 109.648 123.709C109.643 124.003 109.864 124.25 110.143 124.255Z" fill="#222221"/>
<path d="M100.61 122.102C100.056 122.092 99.5967 122.564 99.5872 123.158C99.5777 123.752 100.018 124.245 100.577 124.255C101.13 124.265 101.59 123.793 101.599 123.199C101.608 122.604 101.164 122.112 100.61 122.102Z" fill="#222221"/>
<path d="M103.116 119.948C102.838 119.941 102.612 120.414 102.605 121.011C102.602 121.601 102.822 122.094 103.1 122.101C103.375 122.115 103.605 121.643 103.611 121.046C103.614 120.455 103.395 119.962 103.116 119.948Z" fill="#222221"/>
<path d="M104.107 118.871C104.382 118.877 104.612 118.643 104.617 118.344C104.622 118.045 104.403 117.8 104.122 117.795C103.846 117.795 103.616 118.029 103.611 118.322C103.606 118.621 103.826 118.866 104.107 118.871Z" fill="#222221"/>
<path d="M103.629 115.642C103.07 115.638 102.613 115.871 102.605 116.17C102.598 116.466 103.041 116.71 103.593 116.718C104.152 116.722 104.61 116.485 104.617 116.19C104.625 115.89 104.189 115.646 103.629 115.642Z" fill="#222221"/>
<path d="M101.104 113.488C100.825 113.483 100.598 113.721 100.593 114.016C100.588 114.315 100.805 114.565 101.083 114.565C101.362 114.57 101.594 114.337 101.599 114.038C101.599 113.738 101.383 113.494 101.104 113.488Z" fill="#222221"/>
<path d="M101.541 112.064C101.634 112.345 101.614 112.62 101.493 112.885C101.372 113.149 101.182 113.331 100.921 113.424C100.659 113.523 100.402 113.507 100.154 113.378C99.9019 113.243 99.7321 113.04 99.6448 112.76C99.5527 112.48 99.5721 112.204 99.6933 111.94C99.8146 111.675 100.004 111.493 100.266 111.395C100.532 111.301 100.785 111.317 101.032 111.447C101.284 111.582 101.454 111.784 101.541 112.064Z" fill="#222221"/>
<path d="M99.5869 110.275C99.5975 109.683 99.1516 109.193 98.5996 109.182C98.0422 109.17 97.5858 109.643 97.5751 110.236C97.5645 110.834 98.0104 111.323 98.5624 111.335C99.1198 111.346 99.5763 110.868 99.5869 110.275Z" fill="#222221"/>
<path d="M99.6029 107.028C99.0445 107.025 98.5876 107.263 98.5813 107.558C98.5686 107.857 99.0128 108.101 99.5712 108.105C100.123 108.112 100.587 107.874 100.593 107.578C100.606 107.28 100.161 107.035 99.6029 107.028Z" fill="#222221"/>
<path d="M100.576 105.951C101.131 105.962 101.589 105.485 101.599 104.896C101.609 104.301 101.164 103.809 100.61 103.799C100.055 103.788 99.5967 104.26 99.5872 104.854C99.5776 105.449 100.022 105.941 100.576 105.951Z" fill="#222221"/>
<path d="M96.5858 101.645C96.0334 101.641 95.5765 101.876 95.5629 102.176C95.5561 102.473 95.9993 102.718 96.5517 102.722C97.1109 102.729 97.5678 102.491 97.5746 102.194C97.5883 101.898 97.145 101.652 96.5858 101.645Z" fill="#222221"/>
<path d="M93.5506 101.119C93.5563 100.819 93.3346 100.568 93.0562 100.568C92.7777 100.562 92.5504 100.801 92.5447 101.094C92.539 101.394 92.7607 101.645 93.0391 101.645C93.3176 101.651 93.5449 101.412 93.5506 101.119Z" fill="#222221"/>
<path d="M99.0751 97.3382C99.3511 97.3478 99.5825 96.8714 99.587 96.2808C99.5914 95.6901 99.3689 95.2043 99.0929 95.1852C98.817 95.1757 98.5855 95.652 98.5811 96.2427C98.5766 96.8333 98.7992 97.3287 99.0751 97.3382Z" fill="#222221"/>
<path d="M99.0924 93.0318C98.8135 93.0282 98.5845 93.2627 98.5811 93.5612C98.5745 93.8561 98.7969 94.1013 99.0758 94.1084C99.3513 94.1119 99.5804 93.8774 99.587 93.579C99.5903 93.2805 99.3679 93.0389 99.0924 93.0318Z" fill="#222221"/>
<path d="M90.3931 92.1187C90.4873 92.2244 90.5367 92.3541 90.5322 92.503C90.5322 92.6519 90.4783 92.7768 90.3796 92.8825C90.2808 92.9834 90.1596 93.0362 90.0205 93.0314C89.8813 93.0314 89.7646 92.9738 89.6659 92.8681C89.5716 92.7624 89.5222 92.6327 89.5267 92.4838C89.5267 92.3349 89.5806 92.21 89.6793 92.1043C89.7781 92.0034 89.8993 91.9506 90.0384 91.9554C90.1776 91.9554 90.2943 92.013 90.3931 92.1187Z" fill="#222221"/>
<path d="M87.5312 131.792C86.9794 131.788 86.5151 132.022 86.5084 132.321C86.5016 132.616 86.939 132.861 87.4975 132.868C88.0493 132.872 88.5069 132.634 88.5203 132.339C88.5271 132.044 88.0897 131.799 87.5312 131.792Z" fill="#222221"/>
<path d="M89.0333 128.562C88.7545 128.551 88.5254 129.025 88.5204 129.617C88.5154 130.214 88.737 130.704 89.0134 130.715C89.2923 130.725 89.5213 130.251 89.5263 129.659C89.5313 129.063 89.3097 128.572 89.0333 128.562Z" fill="#222221"/>
<path d="M95.0697 125.332C94.7935 125.327 94.5647 125.564 94.5568 125.859C94.5529 126.155 94.7738 126.4 95.0539 126.408C95.33 126.412 95.5588 126.176 95.5628 125.88C95.5667 125.581 95.3458 125.336 95.0697 125.332Z" fill="#222221"/>
<path d="M90.5501 119.948C89.9945 119.942 89.5384 120.181 89.5267 120.476C89.515 120.774 89.9594 121.019 90.515 121.025C91.0706 121.031 91.5268 120.793 91.5385 120.494C91.5443 120.199 91.1057 119.952 90.5501 119.948Z" fill="#222221"/>
<path d="M95.5827 115.642C95.0299 115.63 94.5682 116.105 94.5568 116.697C94.5511 117.295 94.99 117.783 95.5485 117.795C96.1013 117.801 96.563 117.331 96.5687 116.734C96.5801 116.142 96.1355 115.654 95.5827 115.642Z" fill="#222221"/>
<path d="M92.563 114.565C92.0062 114.559 91.5492 114.796 91.5387 115.095C91.5282 115.391 91.9694 115.636 92.5263 115.642C93.0831 115.647 93.5401 115.41 93.5506 115.112C93.5558 114.816 93.1146 114.571 92.563 114.565Z" fill="#222221"/>
<path d="M88.5204 113.462C88.5124 114.061 88.9567 114.547 89.5062 114.565C90.0637 114.574 90.5162 114.096 90.5323 113.506C90.5404 112.907 90.096 112.421 89.5385 112.412C88.9891 112.395 88.5285 112.872 88.5204 113.462Z" fill="#222221"/>
<path d="M82.9949 112.412C82.7235 112.403 82.492 112.643 82.484 112.942C82.484 113.232 82.6995 113.48 82.979 113.488C83.2584 113.488 83.4899 113.258 83.4899 112.959C83.4978 112.66 83.2743 112.42 82.9949 112.412Z" fill="#222221"/>
<path d="M87.5143 107.575C87.5181 107.275 87.2988 107.033 87.019 107.029C86.7429 107.02 86.5123 107.259 86.5085 107.555C86.5009 107.854 86.724 108.097 87.0038 108.105C87.2799 108.109 87.5105 107.87 87.5143 107.575Z" fill="#222221"/>
<path d="M90.0174 105.952C90.2962 105.958 90.5264 105.718 90.5325 105.426C90.5325 105.128 90.3143 104.881 90.0356 104.875C89.7568 104.875 89.5326 105.108 89.5265 105.407C89.5205 105.699 89.7447 105.945 90.0174 105.952Z" fill="#222221"/>
<path d="M90.5521 102.722C89.9973 102.716 89.5378 102.953 89.5266 103.251C89.5154 103.549 89.9581 103.792 90.5185 103.798C91.0732 103.804 91.5327 103.567 91.5383 103.269C91.5495 102.971 91.1069 102.725 90.5521 102.722Z" fill="#222221"/>
<path d="M88.5391 100.568C87.9812 100.563 87.5198 101.033 87.5145 101.631C87.5037 102.222 87.9436 102.716 88.5016 102.721C89.0595 102.733 89.5155 102.262 89.5262 101.665C89.5369 101.074 89.0917 100.58 88.5391 100.568Z" fill="#222221"/>
<path d="M90.5326 98.3985C90.5264 98.988 90.7492 99.4782 91.0278 99.4914C91.3063 99.5047 91.5353 99.0278 91.5384 98.4316C91.5446 97.8354 91.3218 97.3453 91.0432 97.3386C90.7647 97.3254 90.5357 97.8023 90.5326 98.3985Z" fill="#222221"/>
<path d="M81.9898 96.2618C81.7134 96.2555 81.484 96.4948 81.4781 96.7906C81.4722 97.0865 81.6957 97.332 81.9722 97.3383C82.2486 97.3446 82.478 97.1053 82.4839 96.8095C82.4898 96.5136 82.2663 96.2681 81.9898 96.2618Z" fill="#222221"/>
<path d="M89.5264 94.6374C89.5264 94.9361 89.7461 95.1849 90.0236 95.1849C90.2953 95.1912 90.5266 94.9547 90.5324 94.6561C90.5382 94.3636 90.3185 94.1147 90.041 94.1085C89.7635 94.1023 89.5322 94.345 89.5264 94.6374Z" fill="#222221"/>
<path d="M94.0642 91.9551C93.7813 91.9551 93.556 92.1894 93.5508 92.485C93.5455 92.7806 93.7655 93.0261 94.0432 93.0316C94.3209 93.0372 94.5514 92.7974 94.5566 92.5017C94.5619 92.2061 94.3418 91.9607 94.0642 91.9551Z" fill="#222221"/>
<path d="M83.5047 88.7253C82.9529 88.7148 82.4939 89.1862 82.4842 89.7834C82.4744 90.3754 82.9188 90.8678 83.4705 90.8782C84.0272 90.8887 84.4862 90.412 84.496 89.8201C84.5057 89.2229 84.0614 88.7357 83.5047 88.7253Z" fill="#222221"/>
<path d="M79.9779 84.4187C79.7008 84.4058 79.4719 84.8778 79.4659 85.4726C79.4628 86.0674 79.6827 86.5588 79.9598 86.5717C80.2369 86.5782 80.4658 86.1062 80.4719 85.5114C80.4749 84.9166 80.255 84.4252 79.9779 84.4187Z" fill="#222221"/>
<path d="M91.5386 83.8735C91.5325 84.1689 91.7533 84.4118 92.0354 84.4183C92.3114 84.4249 92.5383 84.1886 92.5444 83.8932C92.5506 83.5912 92.3298 83.3484 92.0477 83.3418C91.7717 83.3418 91.5448 83.5781 91.5386 83.8735Z" fill="#222221"/>
<path d="M81.9899 74.7286C81.7095 74.7238 81.4825 74.9582 81.478 75.2597C81.4736 75.5563 81.6917 75.8003 81.9721 75.8051C82.2481 75.8099 82.4751 75.5754 82.484 75.274C82.4884 74.9774 82.2659 74.7334 81.9899 74.7286Z" fill="#222221"/>
<path d="M85.5022 72.5578C85.499 73.1469 85.7178 73.6378 85.9954 73.6518C86.2731 73.6588 86.5017 73.1889 86.5082 72.5928C86.5115 71.9967 86.2894 71.5058 86.0118 71.4988C85.7374 71.4848 85.5055 71.9617 85.5022 72.5578Z" fill="#222221"/>
<path d="M86.5082 67.7417C86.5125 67.4439 86.2942 67.1965 86.0159 67.192C85.7377 67.1874 85.5065 67.4256 85.5023 67.7234C85.498 68.0165 85.7206 68.2639 85.9988 68.2685C86.277 68.2731 86.5039 68.0349 86.5082 67.7417Z" fill="#222221"/>
<path d="M84.0004 65.0388C83.7235 65.031 83.4903 65.265 83.4903 65.5614C83.483 65.8656 83.7089 66.1074 83.9859 66.1152C84.2628 66.1152 84.4887 65.8812 84.496 65.5848C84.5033 65.2884 84.2774 65.0388 84.0004 65.0388Z" fill="#222221"/>
<path d="M79.9621 65.0385C80.2372 65.0433 80.4673 64.8068 80.4718 64.5123C80.4763 64.213 80.2553 63.9716 79.9756 63.962C79.7005 63.9572 79.4704 64.1937 79.4659 64.493C79.4614 64.7875 79.6824 65.0337 79.9621 65.0385Z" fill="#222221"/>
<path d="M79.9601 60.7318C80.2392 60.738 80.4718 60.5016 80.4718 60.2029C80.4776 59.9043 80.2566 59.6616 79.9776 59.6554C79.7043 59.6492 79.4717 59.8856 79.4659 60.1843C79.4601 60.4829 79.6869 60.7256 79.9601 60.7318Z" fill="#222221"/>
<path d="M83.4746 56.4252C84.0283 56.4318 84.4897 55.9643 84.4959 55.3651C84.5082 54.7725 84.0652 54.2852 83.5115 54.272C82.9516 54.2655 82.4964 54.7396 82.4841 55.3322C82.4779 55.9248 82.9209 56.4121 83.4746 56.4252Z" fill="#222221"/>
<path d="M80.966 53.1952C81.2444 53.2 81.4734 52.9646 81.4779 52.6666C81.4824 52.3686 81.2624 52.1235 80.9839 52.1187C80.7055 52.1139 80.4765 52.3494 80.472 52.6474C80.4675 52.9453 80.6875 53.1904 80.966 53.1952Z" fill="#222221"/>
<path d="M84.4963 45.1118C84.4899 45.4107 84.712 45.6552 84.9913 45.6585C85.2673 45.6653 85.4989 45.4276 85.5021 45.1322C85.5084 44.8334 85.2863 44.5889 85.0071 44.5821C84.7311 44.5787 84.4995 44.8164 84.4963 45.1118Z" fill="#222221"/>
<path d="M86.4874 42.4285C87.0427 42.4398 87.5038 41.9676 87.5143 41.3717C87.5195 40.7759 87.0794 40.2812 86.524 40.2756C85.9687 40.2643 85.5076 40.7365 85.5024 41.3324C85.4919 41.9282 85.932 42.4173 86.4874 42.4285Z" fill="#222221"/>
<path d="M83.9831 41.352C84.2632 41.3592 84.4928 40.8824 84.4961 40.29C84.4995 39.6975 84.2801 39.2063 83.9999 39.1991C83.7232 39.1846 83.4936 39.6614 83.4903 40.2538C83.4835 40.8463 83.7063 41.3375 83.9831 41.352Z" fill="#222221"/>
<mask id="mask2_37_1145" style="mask-type:luminance" maskUnits="userSpaceOnUse" x="97" y="8" width="13" height="11">
<path d="M97.4381 8.30322H109.041V18.82H97.4381V8.30322Z" fill="white"/>
</mask>
<g mask="url(#mask2_37_1145)">
<path d="M104.49 18.6654C104.49 18.5509 104.457 18.516 104.383 18.5509C104.304 18.5808 104.281 18.5509 104.299 18.4314C104.318 18.3069 104.374 18.2671 104.606 18.2372C104.764 18.2123 104.927 18.1575 104.969 18.1177C105.108 17.9683 105.308 16.5491 105.192 16.5491C105.173 16.5491 105.029 16.6786 104.871 16.8379C104.718 16.9973 104.508 17.1716 104.406 17.2263C104.243 17.311 104.085 17.5201 104.085 17.6347C104.085 17.6596 104.16 17.6745 104.253 17.6745C104.42 17.6745 104.55 17.8438 104.462 17.9384C104.434 17.9683 104.318 17.9484 104.202 17.8986C104.006 17.8239 103.969 17.8289 103.872 17.9583C103.811 18.038 103.741 18.1376 103.723 18.1874C103.7 18.2571 103.676 18.2571 103.63 18.1824C103.597 18.1326 103.528 18.1027 103.476 18.1127C103.421 18.1227 103.369 18.0679 103.36 17.9783C103.342 17.8538 103.402 17.789 103.658 17.6546C104.09 17.4255 104.267 17.0919 104.299 16.4695L104.318 15.9964L103.951 15.5482C103.686 15.2246 103.472 15.0403 103.193 14.9009C102.835 14.7266 102.784 14.7167 102.551 14.8013C102.412 14.8511 102.282 14.9258 102.254 14.9656C102.221 15.0104 102.175 15.0005 102.124 14.9457C102.059 14.876 102.063 14.8063 102.156 14.6121C102.217 14.4727 102.268 14.2984 102.268 14.2287C102.268 13.9697 102.579 13.8004 103.067 13.8004H103.514L103.225 13.646C103.067 13.5614 102.798 13.3373 102.63 13.1531C102.463 12.9688 102.3 12.8145 102.272 12.8145C102.245 12.8145 102.128 12.7298 102.017 12.6203C101.905 12.5157 101.733 12.3663 101.631 12.2866C101.529 12.2119 101.352 12.0526 101.236 11.9381C101.12 11.8186 100.897 11.6393 100.738 11.5347C100.58 11.4252 100.45 11.3106 100.45 11.2758C100.45 11.2409 100.367 11.1961 100.269 11.1712C100.167 11.1513 99.9157 11.0218 99.7112 10.8874C99.5067 10.7529 99.1208 10.5288 98.8559 10.3844C98.5863 10.24 98.3678 10.0807 98.3678 10.0259C98.3678 9.97612 98.2516 9.90142 98.1168 9.86159C97.4474 9.66739 97.5776 9.53294 98.3353 9.62755C98.8094 9.68731 99.0372 9.762 99.6182 10.0608C100.004 10.255 100.464 10.5189 100.632 10.6434C100.804 10.7629 101.166 10.9969 101.436 11.1513C101.924 11.4401 102.361 11.7737 103.983 13.1033C104.913 13.8651 105.089 13.9598 105.498 13.9299C105.768 13.91 105.796 13.89 105.856 13.661C105.898 13.4817 105.884 13.2377 105.796 12.7696C105.684 12.1621 105.684 12.1024 105.791 11.6542C106.033 10.6434 106.735 9.15947 107.242 8.59678C107.474 8.33287 107.716 8.30299 107.716 8.53703C107.72 8.62168 107.744 8.74119 107.781 8.79596C107.813 8.85074 107.818 8.95531 107.79 9.03498C107.725 9.21425 107.846 9.48812 108.004 9.53294C108.097 9.55784 108.116 9.60763 108.083 9.74706C108.05 9.86657 108.064 9.92632 108.12 9.92632C108.176 9.92632 108.19 9.99604 108.162 10.1404C108.129 10.3147 108.143 10.3496 108.255 10.3496C108.343 10.3496 108.39 10.3994 108.39 10.489C108.39 10.5687 108.432 10.6334 108.483 10.6334C108.636 10.6334 108.743 10.8177 108.669 10.9621C108.618 11.0567 108.636 11.1015 108.748 11.1613C108.896 11.2459 108.906 11.2808 108.822 11.4949C108.794 11.5795 108.813 11.6194 108.887 11.6194C109.013 11.6194 109.031 11.8335 108.91 11.963C108.845 12.0377 108.845 12.0675 108.91 12.0924C109.031 12.1372 109.013 12.3215 108.878 12.4808C108.766 12.6103 108.766 12.6203 108.878 12.685C109.022 12.7696 109.027 12.9788 108.892 13.0983C108.822 13.163 108.799 13.2527 108.827 13.3871C108.859 13.5465 108.836 13.5963 108.692 13.6809C108.534 13.7656 108.525 13.7855 108.618 13.8701C108.729 13.9647 108.766 14.154 108.669 14.154C108.641 14.154 108.576 14.2635 108.525 14.4029C108.469 14.5473 108.385 14.6469 108.315 14.6469C108.255 14.6469 108.185 14.6918 108.167 14.7415C108.143 14.8113 108.046 14.8212 107.772 14.7864C107.395 14.7366 107.111 14.8162 107.111 14.9706C107.111 15.0851 107.404 15.4237 107.497 15.4237C107.534 15.4237 107.586 15.4686 107.604 15.5283C107.627 15.5881 107.693 15.6329 107.748 15.6329C107.804 15.6329 107.851 15.6628 107.851 15.7026C107.851 15.7424 107.916 15.7723 107.99 15.7723C108.069 15.7723 108.176 15.8221 108.232 15.8819C108.288 15.9366 108.399 15.9864 108.483 15.9864C108.566 15.9864 108.692 16.0313 108.762 16.086C108.887 16.1806 108.887 16.1856 108.701 16.2354C108.422 16.3101 107.809 16.2354 107.349 16.0711C107.014 15.9516 106.926 15.9416 106.842 16.0163C106.786 16.0661 106.568 16.1906 106.358 16.2852C106.075 16.4197 105.963 16.5143 105.931 16.6437C105.908 16.7433 105.903 16.8529 105.926 16.8877C105.987 16.9923 105.577 17.794 105.396 17.9185C105.308 17.9783 105.196 18.0978 105.154 18.1824C105.089 18.3119 105.099 18.3517 105.229 18.4513C105.336 18.536 105.368 18.6156 105.336 18.7003C105.294 18.8198 105.275 18.8148 105.113 18.6455L104.936 18.4613L104.49 18.8198V18.6654Z" fill="black"/>
</g>
<path d="M37.3239 137.896C35.3762 137.896 33.4611 137.697 31.5785 137.299C29.7051 136.891 28.0457 136.183 26.5954 135.188C25.1543 134.182 24.1317 132.807 23.5274 131.064C22.9185 129.327 22.9045 127.141 23.4902 124.511L29.403 125.467C28.8312 127.529 28.6593 129.207 28.8824 130.507C29.1055 131.796 29.6261 132.797 30.4442 133.514C31.2624 134.231 32.285 134.729 33.5122 135.008C34.7487 135.287 36.0502 135.427 37.4169 135.427C39.8341 135.427 41.5447 134.958 42.5487 134.012C43.5528 133.071 44.0548 131.772 44.0548 130.108C44.0548 128.744 43.6737 127.693 42.9206 126.961C42.1629 126.234 41.1542 125.637 39.8898 125.169C38.6255 124.691 37.2216 124.173 35.6877 123.615C34.2234 123.072 32.8056 122.535 31.4297 122.002C30.0538 121.459 28.8127 120.822 27.711 120.09C26.6186 119.363 25.7447 118.451 25.0893 117.361C24.4431 116.275 24.1224 114.931 24.1224 113.337C24.1224 111.296 24.6709 109.647 25.7772 108.398C26.8929 107.153 28.3803 106.236 30.2397 105.649C32.1084 105.066 34.2002 104.772 36.5058 104.772C38.2908 104.772 40.006 104.982 41.6562 105.39C43.3157 105.788 44.7614 106.436 45.9886 107.322C47.2157 108.213 48.0711 109.389 48.5545 110.848C49.0379 112.312 48.9728 114.114 48.3686 116.265L42.4558 115.289C43.246 113.273 43.4784 111.679 43.1437 110.509C42.809 109.344 42.056 108.507 40.8939 107.999C39.7271 107.496 38.2768 107.242 36.543 107.242C34.2745 107.242 32.6197 107.676 31.5785 108.537C30.5465 109.403 30.0352 110.599 30.0352 112.122C30.0352 113.198 30.3513 114.089 30.9835 114.791C31.6249 115.483 32.471 116.056 33.5122 116.504C34.5627 116.957 35.7109 117.416 36.952 117.879C38.5883 118.466 40.1873 119.044 41.7492 119.612C43.3111 120.169 44.7056 120.827 45.9328 121.583C47.1693 122.33 48.1501 123.276 48.8706 124.432C49.6004 125.587 49.9676 127.041 49.9676 128.794C49.9676 131.134 49.3819 132.957 48.2198 134.271C47.0531 135.586 45.5098 136.522 43.59 137.08C41.6795 137.623 39.5923 137.896 37.3239 137.896Z" fill="black"/>
<path d="M65.5143 137.896C62.637 137.896 60.2895 137.299 58.4673 136.104C56.6451 134.899 55.2971 133.33 54.4325 131.403C53.5772 129.466 53.1495 127.41 53.1495 125.229C53.1495 123.052 53.5772 121.001 54.4325 119.074C55.2971 117.137 56.6451 115.568 58.4673 114.373C60.2895 113.168 62.637 112.561 65.5143 112.561C68.401 112.561 70.7438 113.168 72.5427 114.373C74.351 115.568 75.6897 117.137 76.559 119.074C77.4236 121.001 77.8605 123.052 77.8605 125.229C77.8605 127.41 77.4236 129.466 76.559 131.403C75.6897 133.33 74.351 134.899 72.5427 136.104C70.7438 137.299 68.401 137.896 65.5143 137.896ZM66.6114 135.367C68.7682 135.118 70.265 134.047 71.111 132.16C71.9663 130.278 72.2267 127.738 71.892 124.551C71.5945 121.364 70.8368 118.929 69.6235 117.241C68.4056 115.558 66.6578 114.841 64.3801 115.09C62.2604 115.319 60.7729 116.385 59.9176 118.297C59.0716 120.199 58.802 122.739 59.0995 125.926C59.4342 129.103 60.2012 131.523 61.4051 133.196C62.6044 134.869 64.3429 135.596 66.6114 135.367Z" fill="black"/>
<path d="M91.5487 137.896C89.178 137.896 87.2907 137.089 85.8776 135.466C84.4645 133.848 83.7579 131.457 83.7579 128.295V118.894C83.7579 117.236 83.5813 116.101 83.2373 115.488C82.8887 114.866 82.3076 114.552 81.4895 114.552V113.038H91.9577V114.552C91.1396 114.552 90.5493 114.866 90.1913 115.488C89.8427 116.101 89.6707 117.236 89.6707 118.894V130.148C89.6707 131.741 89.9496 133.026 90.5074 133.992C91.0745 134.948 92.0321 135.426 93.3709 135.426C94.6724 135.426 95.7694 135.038 96.6619 134.251C97.5544 133.469 98.2703 132.428 98.8188 131.124C99.3627 129.824 99.7671 128.365 100.027 126.742C100.288 125.123 100.418 123.485 100.418 121.822V118.894C100.418 117.236 100.241 116.101 99.8972 115.488C99.5486 114.866 98.9583 114.552 98.1308 114.552V113.038H108.599V114.552C107.818 114.552 107.242 114.866 106.87 115.488C106.507 116.101 106.331 117.236 106.331 118.894V131.562C106.331 133.225 106.507 134.366 106.87 134.988C107.242 135.6 107.818 135.904 108.599 135.904V137.418H105.55C104.369 137.418 103.402 137.338 102.649 137.179C101.891 137.02 101.329 136.641 100.957 136.044C100.595 135.436 100.418 134.48 100.418 133.175V130.646H100.046C99.5347 132.717 98.605 134.445 97.2569 135.825C95.9043 137.209 94.003 137.896 91.5487 137.896Z" fill="black"/>
<path d="M112.24 137.418V135.904C113.058 135.904 113.639 135.601 113.988 134.988C114.332 134.366 114.509 133.225 114.509 131.562V108.178C114.509 106.52 114.332 105.385 113.988 104.772C113.639 104.15 113.058 103.836 112.24 103.836V102.322H115.29C116.466 102.322 117.432 102.412 118.19 102.581C118.957 102.741 119.52 103.134 119.882 103.756C120.24 104.369 120.421 105.34 120.421 106.664V131.562C120.421 133.225 120.593 134.366 120.942 134.988C121.3 135.601 121.89 135.904 122.708 135.904V137.418H112.24Z" fill="black"/>
<path d="M138.084 137.896C135.23 137.896 132.901 137.369 131.093 136.303C129.28 135.227 127.96 133.773 127.133 131.941C126.301 130.099 125.887 128.037 125.887 125.766C125.887 123.008 126.426 120.642 127.505 118.675C128.583 116.713 130.061 115.205 131.949 114.154C133.845 113.093 136.039 112.561 138.531 112.561C141.292 112.561 143.532 113.173 145.243 114.393C146.954 115.618 147.809 117.341 147.809 119.572C147.809 121.076 147.46 122.32 146.768 123.316C146.07 124.302 145.15 125.079 143.997 125.647C142.844 126.219 141.561 126.613 140.148 126.822C138.735 127.036 137.294 127.091 135.835 126.981C134.384 126.862 133.036 126.638 131.8 126.304V126.802C131.823 128.386 132.065 129.825 132.525 131.124C132.981 132.429 133.659 133.47 134.552 134.251C135.444 135.038 136.56 135.427 137.899 135.427C138.74 135.427 139.502 135.257 140.186 134.909C140.878 134.565 141.399 133.968 141.747 133.116C142.091 132.255 142.161 131.06 141.952 129.531L147.865 128.216C148.014 129.969 147.725 131.582 147.009 133.056C146.303 134.53 145.197 135.705 143.7 136.582C142.198 137.458 140.325 137.896 138.084 137.896ZM131.893 123.814C135.077 124.626 137.536 124.611 139.274 123.774C141.022 122.928 141.896 121.544 141.896 119.632C141.896 118.173 141.566 117.042 140.911 116.245C140.265 115.449 139.228 115.05 137.806 115.05C135.858 115.05 134.422 115.817 133.492 117.341C132.571 118.87 132.042 121.026 131.893 123.814Z" fill="black"/>
<path d="M162.104 137.896C160.18 137.896 158.423 137.418 156.824 136.462C155.234 135.506 153.96 134.087 152.993 132.2C152.027 130.317 151.543 127.992 151.543 125.228C151.543 122.44 152.027 120.109 152.993 118.237C153.96 116.365 155.234 114.95 156.824 113.994C158.423 113.038 160.18 112.56 162.104 112.56C163.973 112.56 165.684 112.998 167.236 113.875C168.784 114.751 170.03 116.021 170.973 117.679H171.327V108.178C171.327 106.52 171.15 105.385 170.806 104.772C170.458 104.15 169.876 103.836 169.058 103.836V102.322H172.108C173.321 102.322 174.302 102.412 175.046 102.581C175.789 102.741 176.338 103.134 176.7 103.756C177.058 104.369 177.24 105.34 177.24 106.664V131.562C177.24 133.225 177.416 134.366 177.779 134.988C178.151 135.601 178.732 135.904 179.527 135.904V137.418H176.477C174.715 137.418 173.414 137.239 172.573 136.88C171.74 136.522 171.327 135.546 171.327 133.952V132.797H170.973C170.03 134.445 168.784 135.705 167.236 136.582C165.684 137.458 163.973 137.896 162.104 137.896ZM164.15 135.426C166.39 135.426 168.091 134.52 169.244 132.698C170.397 130.88 170.973 128.39 170.973 125.228C170.973 122.081 170.397 119.601 169.244 117.779C168.091 115.961 166.39 115.05 164.15 115.05C162.016 115.05 160.417 115.946 159.352 117.739C158.297 119.522 157.772 122.016 157.772 125.228C157.772 128.455 158.297 130.965 159.352 132.757C160.417 134.54 162.016 135.426 164.15 135.426Z" fill="black"/>
<mask id="mask3_37_1145" style="mask-type:luminance" maskUnits="userSpaceOnUse" x="92" y="19" width="12" height="12">
<path d="M92.0831 19.0737H103.983V30.93H92.0831V19.0737Z" fill="white"/>
</mask>
<g mask="url(#mask3_37_1145)">
<path d="M97.703 30.2577C100.632 30.2577 103.002 27.7181 103.002 24.591C103.002 23.6249 102.779 22.7187 102.379 21.9219C102.379 21.9568 102.384 21.9867 102.384 22.0215C102.384 24.1428 100.771 25.8657 98.7861 25.8657C96.8059 25.8657 95.1929 24.1428 95.1929 22.0215C95.1929 20.8414 95.6949 19.7807 96.4805 19.0786C94.1423 19.6662 92.4038 21.912 92.4038 24.591C92.4038 27.7181 94.7792 30.2577 97.703 30.2577Z" fill="#222221"/>
</g>
<path d="M117.202 114.565C116.925 114.56 116.695 114.796 116.69 115.093C116.685 115.39 116.906 115.636 117.184 115.642C117.466 115.647 117.691 115.41 117.696 115.113C117.701 114.817 117.48 114.57 117.202 114.565Z" fill="#222221"/>
<path d="M122.232 111.335C121.953 111.321 121.724 111.798 121.72 112.39C121.714 112.99 121.936 113.481 122.215 113.488C122.491 113.502 122.72 113.026 122.726 112.433C122.73 111.834 122.511 111.343 122.232 111.335Z" fill="#222221"/>
<mask id="mask4_37_1145" style="mask-type:luminance" maskUnits="userSpaceOnUse" x="123" y="108" width="3" height="4">
<path d="M123.023 108.69H125.64V111.24H123.023V108.69Z" fill="white"/>
</mask>
<g mask="url(#mask4_37_1145)">
<path d="M124.803 109.278C124.343 109.273 123.967 109.662 123.957 110.15C123.953 110.643 124.315 111.046 124.775 111.056C125.231 111.066 125.612 110.672 125.617 110.184C125.626 109.691 125.263 109.288 124.803 109.278Z" fill="#222221"/>
</g>
<path d="M122.739 107.029C122.186 107.015 121.727 107.494 121.721 108.088C121.708 108.682 122.154 109.175 122.708 109.181C123.261 109.195 123.72 108.722 123.732 108.122C123.739 107.528 123.299 107.035 122.739 107.029Z" fill="#222221"/>
<path d="M119.1 107.195C119.491 107.2 119.81 106.873 119.82 106.462C119.824 106.051 119.514 105.714 119.124 105.709C118.776 105.699 118.484 105.957 118.419 106.298C118.042 105.095 117.647 103.897 117.238 102.699C117.356 102.53 117.431 102.327 117.436 102.1C117.445 101.604 117.116 101.184 116.674 101.075C116.044 99.2773 115.395 97.4948 114.751 95.7123C113.937 93.4792 113.11 91.2461 112.466 88.9536C111.854 86.7651 111.422 84.527 111.083 82.2791C110.397 77.7782 110.053 73.2229 109.212 68.7518C109.09 68.1032 108.958 67.4545 108.812 66.8108C108.676 66.2216 108.572 65.5878 108.365 65.0234C108.253 64.7114 108.083 64.4193 107.923 64.1321C107.152 62.7606 106.113 61.4237 104.731 60.7057C104.444 58.7252 104.364 56.6901 103.983 54.7442C103.814 53.9025 103.588 53.0756 103.268 52.2834C102.906 51.3772 102.398 50.5652 101.862 49.7581C100.786 48.1539 99.8734 46.4852 99.1963 44.6483C98.4345 42.5984 97.9314 40.4495 97.5458 38.2906C97.5317 38.1966 97.4236 38.1173 97.3342 38.1223C96.6242 38.157 95.9518 38.5184 95.5098 39.1076C94.9643 39.8305 94.9267 40.801 94.9032 41.6873C94.8374 43.8956 95.317 46.0842 95.9612 48.1737C96.0364 48.4262 96.1164 48.6738 96.201 48.9263C93.9816 47.4062 91.2685 46.9309 88.9456 45.6534C88.8375 45.4454 88.6306 45.2969 88.3861 45.292C88.372 45.292 88.3626 45.2969 88.3485 45.2969C88.0193 45.0889 87.6996 44.8612 87.3939 44.6037C87.3046 44.5294 87.1729 44.5047 87.0836 44.6037C86.3312 45.4355 86.0773 46.6734 86.4441 47.7578C86.8767 49.0303 88.0334 49.6492 89.0961 50.2582C91.5976 51.704 94.4001 52.8429 96.1634 55.3334C96.2527 55.4622 96.3374 55.5959 96.4267 55.7295C93.0506 55.1948 89.7168 54.4174 86.4441 53.4073C86.6087 53.2588 86.7121 53.0409 86.7168 52.7934C86.7262 52.3378 86.3783 51.9615 85.9457 51.9516C85.5084 51.9467 85.151 52.3081 85.1416 52.7686C85.1416 52.8924 85.1698 53.0112 85.2121 53.1152C85.1651 53.1598 85.1322 53.2291 85.1228 53.2984C84.9582 54.6501 85.4331 55.9177 86.2936 56.8139C86.2889 56.8436 86.2842 56.8733 86.2795 56.903C86.2748 57.2298 86.524 57.5022 86.8391 57.5121C86.9237 57.5121 86.9989 57.4923 87.0742 57.4625C87.408 57.6755 87.7748 57.8488 88.1651 57.9676C89.4487 58.3489 90.7606 58.6113 92.0255 59.0718C93.3186 59.5421 94.4565 60.2898 95.5427 61.1514C96.5866 61.9733 97.9925 62.8893 98.3123 64.3153C98.3358 64.4242 98.3922 64.6174 98.4721 64.6223C98.3734 65.1868 98.2558 65.7364 98.1195 66.2761C97.4659 65.8602 96.3844 65.7809 95.6697 65.7265C94.6728 65.6522 93.676 65.5779 92.6838 65.5037C90.6901 65.3551 88.6964 65.2066 86.7027 65.058C86.5616 65.0481 86.4535 65.2115 86.4911 65.3502C87.0272 67.1871 88.4284 68.6676 90.1823 69.2222C92.2559 69.8807 94.4377 70.0738 96.2809 71.3513C96.0929 71.7573 95.8907 72.1584 95.6838 72.5545C95.2042 73.4507 94.701 74.3568 94.1133 75.1787C94.0004 75.3372 93.8734 75.4808 93.7465 75.6343C93.6619 75.7382 93.455 76.0898 93.3092 76.1839C93.3374 76.1393 93.0976 76.0997 93.1775 76.1195C93.0412 76.0848 92.886 76.0799 92.7496 76.0452C92.5474 76.0007 92.35 75.9413 92.1572 75.867C91.7058 75.6937 91.2826 75.4461 90.8923 75.1589C90.0788 74.5648 89.4911 73.7775 88.8234 73.0249C88.1322 72.2425 87.3704 71.5345 86.651 70.7819C86.6839 70.7076 86.7074 70.6234 86.7074 70.5393C86.7121 70.2224 86.4723 69.9599 86.1714 69.955C86.0914 69.95 86.0115 69.9698 85.941 70.0045C85.4002 69.3608 84.883 68.7023 84.1871 68.222C82.6542 67.1574 80.8533 67.3357 79.532 68.6825C79.4849 68.7369 79.4473 68.836 79.4755 68.9053C80.9238 72.5297 83.3971 75.5105 85.8093 78.4566C87.2058 80.1599 88.5977 81.8632 89.9942 83.5664C91.0099 84.8093 92.002 86.0818 93.1164 87.2256C92.9048 87.2998 92.7496 87.5078 92.7449 87.7554C92.7402 88.0673 92.9753 88.3248 93.2763 88.3297C93.5302 88.3347 93.7465 88.1515 93.8029 87.8989C93.8782 87.9732 93.9534 88.0475 94.0333 88.1168C95.3546 89.3002 96.8499 90.241 98.2558 91.3154C99.7605 92.4642 101.035 93.7911 101.952 95.5043C102.892 97.2522 103.518 99.1733 104.19 101.05C104.9 103.045 105.591 105.051 106.146 107.106C106.776 109.448 107.199 111.829 107.34 114.265C107.486 116.776 107.401 119.291 107.312 121.801C107.303 122.093 107.74 122.093 107.749 121.801C107.905 117.38 107.966 112.988 106.983 108.66C106.517 106.61 105.887 104.61 105.21 102.629C104.552 100.723 103.898 98.7921 103.113 96.9353C102.389 95.2072 101.458 93.6079 100.127 92.3206C98.853 91.0827 97.3671 90.1271 95.9518 89.0823C94.3437 87.894 92.98 86.4927 91.6917 84.938C90.8641 83.9378 90.0412 82.9327 89.223 81.9275C89.6039 81.9028 89.9096 81.576 89.9143 81.165C89.9237 80.7392 89.5992 80.3827 89.1901 80.3777C88.8328 80.3678 88.5271 80.6303 88.4519 80.9868C88.1698 80.6352 87.8829 80.2886 87.5961 79.9371C84.7936 76.5107 81.6667 73.114 79.9505 68.9053C80.5429 68.3359 81.2718 67.9497 82.0899 67.9546C82.9551 67.9596 83.7686 68.3903 84.4175 68.9697C84.8736 69.3707 85.2592 69.851 85.6541 70.3263C85.6306 70.3858 85.6165 70.4501 85.6165 70.5145C85.6118 70.8314 85.8516 71.0938 86.1526 71.0988C86.209 71.0988 86.2607 71.0889 86.3124 71.074C86.3171 71.0839 86.3218 71.0889 86.3312 71.0938C87.0554 71.8514 87.8218 72.5594 88.5177 73.3467C89.1196 74.03 89.6603 74.743 90.3657 75.3174C91.0381 75.8571 91.7998 76.2978 92.6321 76.4859C92.886 76.5453 93.3609 76.6939 93.5866 76.5255C93.7418 76.4067 93.8829 76.169 94.0098 76.0205C94.4142 75.5303 94.7574 75.0203 95.0913 74.4756C95.6744 73.5299 96.2104 72.5446 96.69 71.5295L96.817 71.2572C97.9502 68.7914 98.7496 66.1473 99.1022 63.434C99.3514 61.5128 99.3749 59.5669 99.1304 57.6457C98.853 55.4919 98.2088 53.4321 97.5082 51.3971C96.7041 49.0649 95.8483 46.7279 95.4957 44.2621C95.3123 42.9895 95.2418 41.6428 95.4487 40.3702C95.6038 39.4493 96.2856 38.7313 97.1649 38.6026C97.842 42.3459 98.9188 46.0594 100.983 49.2333C101.529 50.075 102.121 50.8871 102.572 51.7932C102.972 52.6003 103.249 53.4667 103.452 54.3481C103.861 56.1207 103.969 57.9478 104.181 59.76C104.223 60.1165 104.27 60.478 104.326 60.8394C104.317 60.879 104.326 60.9186 104.345 60.9583C104.575 62.4882 104.938 63.9885 105.648 65.365C105.779 65.6225 106.155 65.3947 106.024 65.1323C105.394 63.9142 105.05 62.612 104.825 61.2751C105.93 61.9584 106.785 63.0478 107.448 64.1866C107.627 64.4936 107.825 64.8204 107.956 65.1571C108.064 65.4541 108.121 65.7908 108.196 66.1028C108.332 66.6524 108.455 67.202 108.572 67.7566C109.494 72.1683 109.861 76.6741 110.477 81.1303C110.792 83.3783 111.168 85.6213 111.718 87.8247C112.268 90.0429 113.016 92.2017 113.792 94.3457C114.6 96.5887 115.423 98.8267 116.213 101.075C115.79 101.189 115.47 101.58 115.466 102.06C115.456 102.634 115.889 103.105 116.434 103.115C116.594 103.12 116.749 103.075 116.886 103.006C117.342 104.348 117.784 105.694 118.202 107.056C119.688 111.874 120.864 116.82 121.282 121.881C121.31 122.173 121.743 122.178 121.719 121.881C121.296 116.781 120.125 111.844 118.64 106.997C118.762 107.115 118.922 107.19 119.1 107.195ZM96.4737 70.9354C94.7951 69.7767 92.7779 69.4153 90.85 68.93C89.1008 68.4894 87.6478 67.3208 87.0177 65.5433C88.8093 65.677 90.6055 65.8106 92.397 65.9443C93.3233 66.0137 94.2496 66.083 95.1712 66.1523C95.9988 66.2117 97.2872 66.2117 97.9972 66.7415C97.6116 68.1725 97.1038 69.5539 96.4737 70.9354ZM98.6132 63.7855C98.2652 62.8596 97.5129 62.1813 96.77 61.5722C95.7637 60.7453 94.748 59.9036 93.6101 59.2847C92.444 58.6509 91.1697 58.2944 89.9049 57.9676C89.0491 57.7448 88.1463 57.5764 87.3751 57.1358C87.3986 57.0664 87.4174 56.9971 87.4174 56.9228C87.4221 56.596 87.1729 56.3237 86.8579 56.3188C86.7309 56.3138 86.6134 56.3584 86.5193 56.4327C85.8422 55.6701 85.4896 54.6452 85.5366 53.6004C89.0773 54.7343 92.6838 55.6008 96.3421 56.1752L96.77 56.2891C97.5458 57.5616 97.9314 58.7054 98.4674 60.1017C98.4815 60.1363 98.5003 60.171 98.5191 60.2007L98.8624 60.7651C98.8436 61.7802 98.759 62.7903 98.6132 63.7855ZM96.422 49.5848C96.9816 51.2535 97.5928 52.8973 98.0583 54.5957C98.5333 56.3287 98.8107 58.0963 98.8577 59.8937C98.3358 58.542 97.8044 57.1853 97.0803 55.9425C96.3703 54.7294 95.4675 53.7044 94.3766 52.8627C93.2857 52.0259 92.0819 51.3772 90.8829 50.7336C90.2763 50.4018 89.665 50.075 89.0679 49.7235C88.5177 49.3967 87.9017 49.0699 87.4503 48.5995C86.5475 47.6538 86.4817 46.104 87.2764 45.079C87.4786 45.2375 87.6855 45.3811 87.897 45.5247C87.7936 45.6435 87.7278 45.797 87.7231 45.9703C87.7184 46.3516 88.0052 46.6635 88.3673 46.6684C88.6682 46.6734 88.9221 46.4605 89.002 46.1684C91.386 47.3963 94.1133 47.9014 96.3044 49.5502C96.3421 49.5799 96.3844 49.5848 96.422 49.5848Z" fill="#0DC9FD"/>
<path d="M121.21 99.4916C121.488 99.4978 121.717 99.2614 121.72 98.9627C121.726 98.664 121.506 98.4183 121.227 98.4152C120.949 98.4089 120.72 98.6454 120.714 98.944C120.709 99.2427 120.932 99.4885 121.21 99.4916Z" fill="#222221"/>
<path d="M120.714 96.7904C120.708 97.0869 120.931 97.3319 121.208 97.3383C121.485 97.3416 121.714 97.1063 121.72 96.8097C121.726 96.5132 121.503 96.2682 121.226 96.2618C120.949 96.2585 120.72 96.4938 120.714 96.7904Z" fill="#222221"/>
<path d="M115.172 96.2615C115.45 96.2727 115.679 95.7986 115.684 95.2074C115.687 94.6106 115.466 94.1197 115.19 94.1086C114.912 94.0974 114.683 94.5715 114.678 95.1683C114.673 95.7595 114.894 96.2559 115.172 96.2615Z" fill="#222221"/>
<path d="M117.186 93.0316C117.464 93.037 117.691 92.8002 117.696 92.5041C117.701 92.2081 117.479 91.9605 117.201 91.9551C116.923 91.9551 116.695 92.1865 116.69 92.4826C116.68 92.7787 116.903 93.0263 117.186 93.0316Z" fill="#222221"/>
<path d="M119.708 87.6298C119.703 88.2243 119.924 88.7125 120.201 88.725C120.478 88.7313 120.708 88.2619 120.714 87.6673C120.717 87.0727 120.496 86.5783 120.219 86.572C119.942 86.5595 119.714 87.0352 119.708 87.6298Z" fill="#222221"/>
<path d="M114.678 76.3545C114.683 76.0524 114.463 75.8053 114.188 75.8053C113.907 75.7998 113.677 76.0359 113.672 76.3325C113.672 76.6346 113.891 76.8762 114.167 76.8817C114.448 76.8872 114.673 76.6511 114.678 76.3545Z" fill="#222221"/>
<path d="M123.239 70.4219C122.961 70.4177 122.734 70.656 122.726 70.9496C122.723 71.2474 122.945 71.4942 123.223 71.4985C123.502 71.5027 123.728 71.2687 123.732 70.9708C123.74 70.673 123.518 70.4304 123.239 70.4219Z" fill="#222221"/>
<path d="M116.69 66.1013C116.687 66.6948 116.909 67.1847 117.185 67.1916C117.461 67.2054 117.69 66.7293 117.696 66.1358C117.702 65.5424 117.481 65.0524 117.201 65.0386C116.925 65.0317 116.697 65.501 116.69 66.1013Z" fill="#222221"/>
<path d="M120.203 63.9617C120.48 63.9741 120.709 63.4977 120.714 62.9037C120.717 62.3098 120.497 61.821 120.22 61.8087C119.94 61.8025 119.711 62.2727 119.708 62.8666C119.703 63.4605 119.925 63.9493 120.203 63.9617Z" fill="#222221"/>
<path d="M120.202 60.7317C120.481 60.7413 120.705 60.499 120.714 60.2081C120.723 59.9076 120.499 59.6556 120.22 59.6556C119.942 59.6459 119.717 59.8882 119.708 60.1888C119.708 60.4796 119.924 60.7317 120.202 60.7317Z" fill="#222221"/>
<path d="M107.125 61.8085C107.402 61.8137 107.631 61.5786 107.635 61.2807C107.64 60.9829 107.422 60.7372 107.145 60.732C106.868 60.7268 106.634 60.9619 106.629 61.2598C106.629 61.5577 106.848 61.8033 107.125 61.8085Z" fill="#222221"/>
<path d="M116.669 55.3485C117.225 55.3587 117.686 54.886 117.696 54.29C117.706 53.699 117.264 53.2058 116.707 53.1955C116.15 53.1852 115.694 53.6579 115.684 54.254C115.67 54.85 116.116 55.3382 116.669 55.3485Z" fill="#222221"/>
<path d="M107.635 54.8218C107.639 54.524 107.419 54.2786 107.142 54.2721C106.864 54.2656 106.636 54.5044 106.63 54.8021C106.623 55.0999 106.846 55.3452 107.123 55.3485C107.401 55.355 107.629 55.1162 107.635 54.8218Z" fill="#222221"/>
<path d="M108.642 51.5705C108.634 51.8684 108.857 52.1146 109.135 52.1186C109.414 52.1226 109.644 51.8882 109.647 51.5903C109.655 51.2924 109.432 51.0462 109.154 51.0422C108.876 51.0342 108.645 51.2726 108.642 51.5705Z" fill="#222221"/>
<path d="M109.136 51.0419C109.414 51.0494 109.644 50.5784 109.648 49.9804C109.651 49.3899 109.432 48.8965 109.153 48.889C108.875 48.8741 108.645 49.3525 108.642 49.943C108.638 50.5411 108.857 51.0344 109.136 51.0419Z" fill="#222221"/>
<path d="M113.16 46.7352C113.439 46.7415 113.672 46.4988 113.672 46.2064C113.678 45.9077 113.457 45.6588 113.178 45.6588C112.899 45.6526 112.672 45.889 112.666 46.1877C112.66 46.4864 112.881 46.729 113.16 46.7352Z" fill="#222221"/>
<path d="M110.654 45.1069C110.648 45.4096 110.874 45.6518 111.15 45.6586C111.427 45.6653 111.66 45.4231 111.66 45.1271C111.666 44.8311 111.446 44.5889 111.169 44.5822C110.886 44.5754 110.66 44.8109 110.654 45.1069Z" fill="#222221"/>
<path d="M107.142 43.5054C106.862 43.5015 106.633 43.7356 106.629 44.0359C106.626 44.3323 106.847 44.5781 107.123 44.582C107.399 44.5859 107.628 44.3518 107.635 44.0554C107.639 43.7551 107.418 43.5093 107.142 43.5054Z" fill="#222221"/>
<path d="M114.664 40.2754C115.219 40.2784 115.672 40.0449 115.684 39.7477C115.695 39.4505 115.253 39.2048 114.698 39.1988C114.142 39.1957 113.683 39.4323 113.672 39.7264C113.666 40.0236 114.108 40.2693 114.664 40.2754Z" fill="#222221"/>
<path d="M109.628 40.2752C110.185 40.2858 110.644 39.8108 110.654 39.2198C110.663 38.6235 110.22 38.1328 109.667 38.1222C109.11 38.1117 108.652 38.5866 108.642 39.1776C108.632 39.7739 109.076 40.2647 109.628 40.2752Z" fill="#222221"/>
<path d="M116.624 115.421C116.618 115.717 116.842 115.963 117.118 115.969C117.395 115.975 117.624 115.736 117.63 115.44C117.636 115.144 117.413 114.899 117.136 114.893C116.86 114.893 116.63 115.126 116.624 115.421Z" fill="#222221"/>
<path d="M107.125 35.9685C107.403 35.9815 107.629 35.5081 107.635 34.9114C107.639 34.3213 107.418 33.8285 107.14 33.8155C106.862 33.809 106.636 34.2824 106.629 34.879C106.626 35.4692 106.847 35.962 107.125 35.9685Z" fill="#222221"/>
<path d="M106.113 33.8152C106.389 33.8244 106.621 33.5832 106.629 33.2864C106.629 32.9895 106.406 32.7483 106.131 32.739C105.856 32.7298 105.632 32.971 105.623 33.2678C105.623 33.5647 105.838 33.8152 106.113 33.8152Z" fill="#222221"/>
<path d="M108.13 28.4319C108.411 28.441 108.641 28.2039 108.641 27.9029C108.65 27.602 108.428 27.3648 108.147 27.3557C107.866 27.3466 107.636 27.5837 107.636 27.8847C107.627 28.1856 107.849 28.4319 108.13 28.4319Z" fill="#222221"/>
<path d="M110.143 124.255C110.418 124.26 110.649 124.024 110.654 123.724C110.659 123.43 110.438 123.184 110.158 123.178C109.883 123.173 109.653 123.409 109.648 123.709C109.643 124.003 109.864 124.25 110.143 124.255Z" fill="#222221"/>
<path d="M100.61 122.102C100.056 122.092 99.5967 122.564 99.5872 123.158C99.5777 123.752 100.018 124.245 100.577 124.255C101.13 124.265 101.59 123.793 101.599 123.199C101.608 122.604 101.164 122.112 100.61 122.102Z" fill="#222221"/>
<path d="M103.116 119.948C102.838 119.941 102.612 120.414 102.605 121.011C102.602 121.601 102.822 122.094 103.1 122.101C103.375 122.115 103.605 121.643 103.611 121.046C103.614 120.455 103.395 119.962 103.116 119.948Z" fill="#222221"/>
<path d="M104.107 118.871C104.382 118.877 104.612 118.643 104.617 118.344C104.622 118.045 104.403 117.8 104.122 117.795C103.846 117.795 103.616 118.029 103.611 118.322C103.606 118.621 103.826 118.866 104.107 118.871Z" fill="#222221"/>
<path d="M103.629 115.642C103.07 115.638 102.613 115.871 102.605 116.17C102.598 116.466 103.041 116.71 103.593 116.718C104.152 116.722 104.61 116.485 104.617 116.19C104.625 115.89 104.189 115.646 103.629 115.642Z" fill="#222221"/>
<path d="M101.104 113.488C100.825 113.483 100.598 113.721 100.593 114.016C100.588 114.315 100.805 114.565 101.083 114.565C101.362 114.57 101.594 114.337 101.599 114.038C101.599 113.738 101.383 113.494 101.104 113.488Z" fill="#222221"/>
<path d="M101.541 112.064C101.634 112.345 101.614 112.62 101.493 112.885C101.372 113.149 101.182 113.331 100.921 113.424C100.659 113.523 100.402 113.507 100.154 113.378C99.9019 113.243 99.7321 113.04 99.6448 112.76C99.5527 112.48 99.5721 112.204 99.6933 111.94C99.8146 111.675 100.004 111.493 100.266 111.395C100.532 111.301 100.785 111.317 101.032 111.447C101.284 111.582 101.454 111.784 101.541 112.064Z" fill="#222221"/>
<path d="M99.5869 110.275C99.5975 109.683 99.1516 109.193 98.5996 109.182C98.0422 109.17 97.5858 109.643 97.5751 110.236C97.5645 110.834 98.0104 111.323 98.5624 111.335C99.1198 111.346 99.5763 110.868 99.5869 110.275Z" fill="#222221"/>
<path d="M99.6029 107.028C99.0445 107.025 98.5876 107.263 98.5813 107.558C98.5686 107.857 99.0128 108.101 99.5712 108.105C100.123 108.112 100.587 107.874 100.593 107.578C100.606 107.28 100.161 107.035 99.6029 107.028Z" fill="#222221"/>
<path d="M100.576 105.951C101.131 105.962 101.589 105.485 101.599 104.896C101.609 104.301 101.164 103.809 100.61 103.799C100.055 103.788 99.5967 104.26 99.5872 104.854C99.5776 105.449 100.022 105.941 100.576 105.951Z" fill="#222221"/>
<path d="M96.5858 101.645C96.0334 101.641 95.5765 101.876 95.5629 102.176C95.5561 102.473 95.9993 102.718 96.5517 102.722C97.1109 102.729 97.5678 102.491 97.5746 102.194C97.5883 101.898 97.145 101.652 96.5858 101.645Z" fill="#222221"/>
<path d="M93.5506 101.119C93.5563 100.819 93.3346 100.568 93.0562 100.568C92.7777 100.562 92.5504 100.801 92.5447 101.094C92.539 101.394 92.7607 101.645 93.0391 101.645C93.3176 101.651 93.5449 101.412 93.5506 101.119Z" fill="#222221"/>
<path d="M99.0751 97.3382C99.3511 97.3478 99.5825 96.8714 99.587 96.2808C99.5914 95.6901 99.3689 95.2043 99.0929 95.1852C98.817 95.1757 98.5855 95.652 98.5811 96.2427C98.5766 96.8333 98.7992 97.3287 99.0751 97.3382Z" fill="#222221"/>
<path d="M99.0924 93.0318C98.8135 93.0282 98.5845 93.2627 98.5811 93.5612C98.5745 93.8561 98.7969 94.1013 99.0758 94.1084C99.3513 94.1119 99.5804 93.8774 99.587 93.579C99.5903 93.2805 99.3679 93.0389 99.0924 93.0318Z" fill="#222221"/>
<path d="M90.3931 92.1187C90.4873 92.2244 90.5367 92.3541 90.5322 92.503C90.5322 92.6519 90.4783 92.7768 90.3796 92.8825C90.2808 92.9834 90.1596 93.0362 90.0205 93.0314C89.8813 93.0314 89.7646 92.9738 89.6659 92.8681C89.5716 92.7624 89.5222 92.6327 89.5267 92.4838C89.5267 92.3349 89.5806 92.21 89.6793 92.1043C89.7781 92.0034 89.8993 91.9506 90.0384 91.9554C90.1776 91.9554 90.2943 92.013 90.3931 92.1187Z" fill="#222221"/>
<path d="M90.5501 119.948C89.9945 119.942 89.5384 120.181 89.5267 120.476C89.515 120.774 89.9594 121.019 90.515 121.025C91.0706 121.031 91.5268 120.793 91.5385 120.494C91.5443 120.199 91.1057 119.952 90.5501 119.948Z" fill="#222221"/>
<path d="M95.5827 115.642C95.0299 115.63 94.5682 116.105 94.5568 116.697C94.5511 117.295 94.99 117.783 95.5485 117.795C96.1013 117.801 96.563 117.331 96.5687 116.734C96.5801 116.142 96.1355 115.654 95.5827 115.642Z" fill="#222221"/>
<path d="M92.563 114.565C92.0062 114.559 91.5492 114.796 91.5387 115.095C91.5282 115.391 91.9694 115.636 92.5263 115.642C93.0831 115.647 93.5401 115.41 93.5506 115.112C93.5558 114.816 93.1146 114.571 92.563 114.565Z" fill="#222221"/>
<path d="M88.5204 113.462C88.5124 114.061 88.9567 114.547 89.5062 114.565C90.0637 114.574 90.5162 114.096 90.5323 113.506C90.5404 112.907 90.096 112.421 89.5385 112.412C88.9891 112.395 88.5285 112.872 88.5204 113.462Z" fill="#222221"/>
<path d="M82.9949 112.412C82.7235 112.403 82.492 112.643 82.484 112.942C82.484 113.232 82.6995 113.48 82.979 113.488C83.2584 113.488 83.4899 113.258 83.4899 112.959C83.4978 112.66 83.2743 112.42 82.9949 112.412Z" fill="#222221"/>
<path d="M87.5143 107.575C87.5181 107.275 87.2988 107.033 87.019 107.029C86.7429 107.02 86.5123 107.259 86.5085 107.555C86.5009 107.854 86.724 108.097 87.0038 108.105C87.2799 108.109 87.5105 107.87 87.5143 107.575Z" fill="#222221"/>
<path d="M90.0174 105.952C90.2962 105.958 90.5264 105.718 90.5325 105.426C90.5325 105.128 90.3143 104.881 90.0356 104.875C89.7568 104.875 89.5326 105.108 89.5265 105.407C89.5205 105.699 89.7447 105.945 90.0174 105.952Z" fill="#222221"/>
<path d="M90.5521 102.722C89.9973 102.716 89.5378 102.953 89.5266 103.251C89.5154 103.549 89.9581 103.792 90.5185 103.798C91.0732 103.804 91.5327 103.567 91.5383 103.269C91.5495 102.971 91.1069 102.725 90.5521 102.722Z" fill="#222221"/>
<path d="M88.5391 100.568C87.9812 100.563 87.5198 101.033 87.5145 101.631C87.5037 102.222 87.9436 102.716 88.5016 102.721C89.0595 102.733 89.5155 102.262 89.5262 101.665C89.5369 101.074 89.0917 100.58 88.5391 100.568Z" fill="#222221"/>
<path d="M90.5326 98.3985C90.5264 98.988 90.7492 99.4782 91.0278 99.4914C91.3063 99.5047 91.5353 99.0278 91.5384 98.4316C91.5446 97.8354 91.3218 97.3453 91.0432 97.3386C90.7647 97.3254 90.5357 97.8023 90.5326 98.3985Z" fill="#222221"/>
<path d="M81.9898 96.2618C81.7134 96.2555 81.484 96.4948 81.4781 96.7906C81.4722 97.0865 81.6957 97.332 81.9722 97.3383C82.2486 97.3446 82.478 97.1053 82.4839 96.8095C82.4898 96.5136 82.2663 96.2681 81.9898 96.2618Z" fill="#222221"/>
<path d="M89.5264 94.6374C89.5264 94.9361 89.7461 95.1849 90.0236 95.1849C90.2953 95.1912 90.5266 94.9547 90.5324 94.6561C90.5382 94.3636 90.3185 94.1147 90.041 94.1085C89.7635 94.1023 89.5322 94.345 89.5264 94.6374Z" fill="#222221"/>
<path d="M94.0642 91.9551C93.7813 91.9551 93.556 92.1894 93.5508 92.485C93.5455 92.7806 93.7655 93.0261 94.0432 93.0316C94.3209 93.0372 94.5514 92.7974 94.5566 92.5017C94.5619 92.2061 94.3418 91.9607 94.0642 91.9551Z" fill="#222221"/>
<path d="M83.5047 88.7253C82.9529 88.7148 82.4939 89.1862 82.4842 89.7834C82.4744 90.3754 82.9188 90.8678 83.4705 90.8782C84.0272 90.8887 84.4862 90.412 84.496 89.8201C84.5057 89.2229 84.0614 88.7357 83.5047 88.7253Z" fill="#222221"/>
<path d="M79.9779 84.4187C79.7008 84.4058 79.4719 84.8778 79.4659 85.4726C79.4628 86.0674 79.6827 86.5588 79.9598 86.5717C80.2369 86.5782 80.4658 86.1062 80.4719 85.5114C80.4749 84.9166 80.255 84.4252 79.9779 84.4187Z" fill="#222221"/>
<path d="M91.5386 83.8735C91.5325 84.1689 91.7533 84.4118 92.0354 84.4183C92.3114 84.4249 92.5383 84.1886 92.5444 83.8932C92.5506 83.5912 92.3298 83.3484 92.0477 83.3418C91.7717 83.3418 91.5448 83.5781 91.5386 83.8735Z" fill="#222221"/>
<path d="M81.9899 74.7286C81.7095 74.7238 81.4825 74.9582 81.478 75.2597C81.4736 75.5563 81.6917 75.8003 81.9721 75.8051C82.2481 75.8099 82.4751 75.5754 82.484 75.274C82.4884 74.9774 82.2659 74.7334 81.9899 74.7286Z" fill="#222221"/>
<path d="M85.5022 72.5578C85.499 73.1469 85.7178 73.6378 85.9954 73.6518C86.2731 73.6588 86.5017 73.1889 86.5082 72.5928C86.5115 71.9967 86.2894 71.5058 86.0118 71.4988C85.7374 71.4848 85.5055 71.9617 85.5022 72.5578Z" fill="#222221"/>
<path d="M86.5082 67.7417C86.5125 67.4439 86.2942 67.1965 86.0159 67.192C85.7377 67.1874 85.5065 67.4256 85.5023 67.7234C85.498 68.0165 85.7206 68.2639 85.9988 68.2685C86.277 68.2731 86.5039 68.0349 86.5082 67.7417Z" fill="#222221"/>
<path d="M84.0004 65.0388C83.7235 65.031 83.4903 65.265 83.4903 65.5614C83.483 65.8656 83.7089 66.1074 83.9859 66.1152C84.2628 66.1152 84.4887 65.8812 84.496 65.5848C84.5033 65.2884 84.2774 65.0388 84.0004 65.0388Z" fill="#222221"/>
<path d="M79.9621 65.0385C80.2372 65.0433 80.4673 64.8068 80.4718 64.5123C80.4763 64.213 80.2553 63.9716 79.9756 63.962C79.7005 63.9572 79.4704 64.1937 79.4659 64.493C79.4614 64.7875 79.6824 65.0337 79.9621 65.0385Z" fill="#222221"/>
<path d="M79.9601 60.7318C80.2392 60.738 80.4718 60.5016 80.4718 60.2029C80.4776 59.9043 80.2566 59.6616 79.9776 59.6554C79.7043 59.6492 79.4717 59.8856 79.4659 60.1843C79.4601 60.4829 79.6869 60.7256 79.9601 60.7318Z" fill="#222221"/>
<path d="M83.4746 56.4252C84.0283 56.4318 84.4897 55.9643 84.4959 55.3651C84.5082 54.7725 84.0652 54.2852 83.5115 54.272C82.9516 54.2655 82.4964 54.7396 82.4841 55.3322C82.4779 55.9248 82.9209 56.4121 83.4746 56.4252Z" fill="#222221"/>
<path d="M80.966 53.1952C81.2444 53.2 81.4734 52.9646 81.4779 52.6666C81.4824 52.3686 81.2624 52.1235 80.9839 52.1187C80.7055 52.1139 80.4765 52.3494 80.472 52.6474C80.4675 52.9453 80.6875 53.1904 80.966 53.1952Z" fill="#222221"/>
<path d="M84.4963 45.1118C84.4899 45.4107 84.712 45.6552 84.9913 45.6585C85.2673 45.6653 85.4989 45.4276 85.5021 45.1322C85.5084 44.8334 85.2863 44.5889 85.0071 44.5821C84.7311 44.5787 84.4995 44.8164 84.4963 45.1118Z" fill="#222221"/>
<path d="M86.4874 42.4285C87.0427 42.4398 87.5038 41.9676 87.5143 41.3717C87.5195 40.7759 87.0794 40.2812 86.524 40.2756C85.9687 40.2643 85.5076 40.7365 85.5024 41.3324C85.4919 41.9282 85.932 42.4173 86.4874 42.4285Z" fill="#222221"/>
<path d="M83.9831 41.352C84.2632 41.3592 84.4928 40.8824 84.4961 40.29C84.4995 39.6975 84.2801 39.2063 83.9999 39.1991C83.7232 39.1846 83.4936 39.6614 83.4903 40.2538C83.4835 40.8463 83.7063 41.3375 83.9831 41.352Z" fill="#222221"/>
<mask id="mask5_37_1145" style="mask-type:luminance" maskUnits="userSpaceOnUse" x="97" y="8" width="13" height="11">
<path d="M97.4381 8.30322H109.041V18.82H97.4381V8.30322Z" fill="white"/>
</mask>
<g mask="url(#mask5_37_1145)">
<path d="M104.49 18.6654C104.49 18.5509 104.457 18.516 104.383 18.5509C104.304 18.5808 104.281 18.5509 104.299 18.4314C104.318 18.3069 104.374 18.2671 104.606 18.2372C104.764 18.2123 104.927 18.1575 104.969 18.1177C105.108 17.9683 105.308 16.5491 105.192 16.5491C105.173 16.5491 105.029 16.6786 104.871 16.8379C104.718 16.9973 104.508 17.1716 104.406 17.2263C104.243 17.311 104.085 17.5201 104.085 17.6347C104.085 17.6596 104.16 17.6745 104.253 17.6745C104.42 17.6745 104.55 17.8438 104.462 17.9384C104.434 17.9683 104.318 17.9484 104.202 17.8986C104.006 17.8239 103.969 17.8289 103.872 17.9583C103.811 18.038 103.741 18.1376 103.723 18.1874C103.7 18.2571 103.676 18.2571 103.63 18.1824C103.597 18.1326 103.528 18.1027 103.476 18.1127C103.421 18.1227 103.369 18.0679 103.36 17.9783C103.342 17.8538 103.402 17.789 103.658 17.6546C104.09 17.4255 104.267 17.0919 104.299 16.4695L104.318 15.9964L103.951 15.5482C103.686 15.2246 103.472 15.0403 103.193 14.9009C102.835 14.7266 102.784 14.7167 102.551 14.8013C102.412 14.8511 102.282 14.9258 102.254 14.9656C102.221 15.0104 102.175 15.0005 102.124 14.9457C102.059 14.876 102.063 14.8063 102.156 14.6121C102.217 14.4727 102.268 14.2984 102.268 14.2287C102.268 13.9697 102.579 13.8004 103.067 13.8004H103.514L103.225 13.646C103.067 13.5614 102.798 13.3373 102.63 13.1531C102.463 12.9688 102.3 12.8145 102.272 12.8145C102.245 12.8145 102.128 12.7298 102.017 12.6203C101.905 12.5157 101.733 12.3663 101.631 12.2866C101.529 12.2119 101.352 12.0526 101.236 11.9381C101.12 11.8186 100.897 11.6393 100.738 11.5347C100.58 11.4252 100.45 11.3106 100.45 11.2758C100.45 11.2409 100.367 11.1961 100.269 11.1712C100.167 11.1513 99.9157 11.0218 99.7112 10.8874C99.5067 10.7529 99.1208 10.5288 98.8559 10.3844C98.5863 10.24 98.3678 10.0807 98.3678 10.0259C98.3678 9.97612 98.2516 9.90142 98.1168 9.86159C97.4474 9.66739 97.5776 9.53294 98.3353 9.62755C98.8094 9.68731 99.0372 9.762 99.6182 10.0608C100.004 10.255 100.464 10.5189 100.632 10.6434C100.804 10.7629 101.166 10.9969 101.436 11.1513C101.924 11.4401 102.361 11.7737 103.983 13.1033C104.913 13.8651 105.089 13.9598 105.498 13.9299C105.768 13.91 105.796 13.89 105.856 13.661C105.898 13.4817 105.884 13.2377 105.796 12.7696C105.684 12.1621 105.684 12.1024 105.791 11.6542C106.033 10.6434 106.735 9.15947 107.242 8.59678C107.474 8.33287 107.716 8.30299 107.716 8.53703C107.72 8.62168 107.744 8.74119 107.781 8.79596C107.813 8.85074 107.818 8.95531 107.79 9.03498C107.725 9.21425 107.846 9.48812 108.004 9.53294C108.097 9.55784 108.116 9.60763 108.083 9.74706C108.05 9.86657 108.064 9.92632 108.12 9.92632C108.176 9.92632 108.19 9.99604 108.162 10.1404C108.129 10.3147 108.143 10.3496 108.255 10.3496C108.343 10.3496 108.39 10.3994 108.39 10.489C108.39 10.5687 108.432 10.6334 108.483 10.6334C108.636 10.6334 108.743 10.8177 108.669 10.9621C108.618 11.0567 108.636 11.1015 108.748 11.1613C108.896 11.2459 108.906 11.2808 108.822 11.4949C108.794 11.5795 108.813 11.6194 108.887 11.6194C109.013 11.6194 109.031 11.8335 108.91 11.963C108.845 12.0377 108.845 12.0675 108.91 12.0924C109.031 12.1372 109.013 12.3215 108.878 12.4808C108.766 12.6103 108.766 12.6203 108.878 12.685C109.022 12.7696 109.027 12.9788 108.892 13.0983C108.822 13.163 108.799 13.2527 108.827 13.3871C108.859 13.5465 108.836 13.5963 108.692 13.6809C108.534 13.7656 108.525 13.7855 108.618 13.8701C108.729 13.9647 108.766 14.154 108.669 14.154C108.641 14.154 108.576 14.2635 108.525 14.4029C108.469 14.5473 108.385 14.6469 108.315 14.6469C108.255 14.6469 108.185 14.6918 108.167 14.7415C108.143 14.8113 108.046 14.8212 107.772 14.7864C107.395 14.7366 107.111 14.8162 107.111 14.9706C107.111 15.0851 107.404 15.4237 107.497 15.4237C107.534 15.4237 107.586 15.4686 107.604 15.5283C107.627 15.5881 107.693 15.6329 107.748 15.6329C107.804 15.6329 107.851 15.6628 107.851 15.7026C107.851 15.7424 107.916 15.7723 107.99 15.7723C108.069 15.7723 108.176 15.8221 108.232 15.8819C108.288 15.9366 108.399 15.9864 108.483 15.9864C108.566 15.9864 108.692 16.0313 108.762 16.086C108.887 16.1806 108.887 16.1856 108.701 16.2354C108.422 16.3101 107.809 16.2354 107.349 16.0711C107.014 15.9516 106.926 15.9416 106.842 16.0163C106.786 16.0661 106.568 16.1906 106.358 16.2852C106.075 16.4197 105.963 16.5143 105.931 16.6437C105.908 16.7433 105.903 16.8529 105.926 16.8877C105.987 16.9923 105.577 17.794 105.396 17.9185C105.308 17.9783 105.196 18.0978 105.154 18.1824C105.089 18.3119 105.099 18.3517 105.229 18.4513C105.336 18.536 105.368 18.6156 105.336 18.7003C105.294 18.8198 105.275 18.8148 105.113 18.6455L104.936 18.4613L104.49 18.8198V18.6654Z" fill="black"/>
</g>
<path d="M37.3239 137.896C35.3762 137.896 33.4611 137.697 31.5785 137.299C29.7051 136.891 28.0457 136.183 26.5954 135.188C25.1543 134.182 24.1317 132.807 23.5274 131.064C22.9185 129.327 22.9045 127.141 23.4902 124.511L29.403 125.467C28.8312 127.529 28.6593 129.207 28.8824 130.507C29.1055 131.796 29.6261 132.797 30.4442 133.514C31.2624 134.231 32.285 134.729 33.5122 135.008C34.7487 135.287 36.0502 135.427 37.4169 135.427C39.8341 135.427 41.5447 134.958 42.5487 134.012C43.5528 133.071 44.0548 131.772 44.0548 130.108C44.0548 128.744 43.6737 127.693 42.9206 126.961C42.1629 126.234 41.1542 125.637 39.8898 125.169C38.6255 124.691 37.2216 124.173 35.6877 123.615C34.2234 123.072 32.8056 122.535 31.4297 122.002C30.0538 121.459 28.8127 120.822 27.711 120.09C26.6186 119.363 25.7447 118.451 25.0893 117.361C24.4431 116.275 24.1224 114.931 24.1224 113.337C24.1224 111.296 24.6709 109.647 25.7772 108.398C26.8929 107.153 28.3803 106.236 30.2397 105.649C32.1084 105.066 34.2002 104.772 36.5058 104.772C38.2908 104.772 40.006 104.982 41.6562 105.39C43.3157 105.788 44.7614 106.436 45.9886 107.322C47.2157 108.213 48.0711 109.389 48.5545 110.848C49.0379 112.312 48.9728 114.114 48.3686 116.265L42.4558 115.289C43.246 113.273 43.4784 111.679 43.1437 110.509C42.809 109.344 42.056 108.507 40.8939 107.999C39.7271 107.496 38.2768 107.242 36.543 107.242C34.2745 107.242 32.6197 107.676 31.5785 108.537C30.5465 109.403 30.0352 110.599 30.0352 112.122C30.0352 113.198 30.3513 114.089 30.9835 114.791C31.6249 115.483 32.471 116.056 33.5122 116.504C34.5627 116.957 35.7109 117.416 36.952 117.879C38.5883 118.466 40.1873 119.044 41.7492 119.612C43.3111 120.169 44.7056 120.827 45.9328 121.583C47.1693 122.33 48.1501 123.276 48.8706 124.432C49.6004 125.587 49.9676 127.041 49.9676 128.794C49.9676 131.134 49.3819 132.957 48.2198 134.271C47.0531 135.586 45.5098 136.522 43.59 137.08C41.6795 137.623 39.5923 137.896 37.3239 137.896Z" fill="black"/>
<path d="M65.5143 137.896C62.637 137.896 60.2895 137.299 58.4673 136.104C56.6451 134.899 55.2971 133.33 54.4325 131.403C53.5772 129.466 53.1495 127.41 53.1495 125.229C53.1495 123.052 53.5772 121.001 54.4325 119.074C55.2971 117.137 56.6451 115.568 58.4673 114.373C60.2895 113.168 62.637 112.561 65.5143 112.561C68.401 112.561 70.7438 113.168 72.5427 114.373C74.351 115.568 75.6897 117.137 76.559 119.074C77.4236 121.001 77.8605 123.052 77.8605 125.229C77.8605 127.41 77.4236 129.466 76.559 131.403C75.6897 133.33 74.351 134.899 72.5427 136.104C70.7438 137.299 68.401 137.896 65.5143 137.896ZM66.6114 135.367C68.7682 135.118 70.265 134.047 71.111 132.16C71.9663 130.278 72.2267 127.738 71.892 124.551C71.5945 121.364 70.8368 118.929 69.6235 117.241C68.4056 115.558 66.6578 114.841 64.3801 115.09C62.2604 115.319 60.7729 116.385 59.9176 118.297C59.0716 120.199 58.802 122.739 59.0995 125.926C59.4342 129.103 60.2012 131.523 61.4051 133.196C62.6044 134.869 64.3429 135.596 66.6114 135.367Z" fill="black"/>
<path d="M91.5487 137.896C89.178 137.896 87.2907 137.089 85.8776 135.466C84.4645 133.848 83.7579 131.457 83.7579 128.295V118.894C83.7579 117.236 83.5813 116.101 83.2373 115.488C82.8887 114.866 82.3076 114.552 81.4895 114.552V113.038H91.9577V114.552C91.1396 114.552 90.5493 114.866 90.1913 115.488C89.8427 116.101 89.6707 117.236 89.6707 118.894V130.148C89.6707 131.741 89.9496 133.026 90.5074 133.992C91.0745 134.948 92.0321 135.426 93.3709 135.426C94.6724 135.426 95.7694 135.038 96.6619 134.251C97.5544 133.469 98.2703 132.428 98.8188 131.124C99.3627 129.824 99.7671 128.365 100.027 126.742C100.288 125.123 100.418 123.485 100.418 121.822V118.894C100.418 117.236 100.241 116.101 99.8972 115.488C99.5486 114.866 98.9583 114.552 98.1308 114.552V113.038H108.599V114.552C107.818 114.552 107.242 114.866 106.87 115.488C106.507 116.101 106.331 117.236 106.331 118.894V131.562C106.331 133.225 106.507 134.366 106.87 134.988C107.242 135.6 107.818 135.904 108.599 135.904V137.418H105.55C104.369 137.418 103.402 137.338 102.649 137.179C101.891 137.02 101.329 136.641 100.957 136.044C100.595 135.436 100.418 134.48 100.418 133.175V130.646H100.046C99.5347 132.717 98.605 134.445 97.2569 135.825C95.9043 137.209 94.003 137.896 91.5487 137.896Z" fill="black"/>
<path d="M112.24 137.418V135.904C113.058 135.904 113.639 135.601 113.988 134.988C114.332 134.366 114.509 133.225 114.509 131.562V108.178C114.509 106.52 114.332 105.385 113.988 104.772C113.639 104.15 113.058 103.836 112.24 103.836V102.322H115.29C116.466 102.322 117.432 102.412 118.19 102.581C118.957 102.741 119.52 103.134 119.882 103.756C120.24 104.369 120.421 105.34 120.421 106.664V131.562C120.421 133.225 120.593 134.366 120.942 134.988C121.3 135.601 121.89 135.904 122.708 135.904V137.418H112.24Z" fill="black"/>
<path d="M138.084 137.896C135.23 137.896 132.901 137.369 131.093 136.303C129.28 135.227 127.96 133.773 127.133 131.941C126.301 130.099 125.887 128.037 125.887 125.766C125.887 123.008 126.426 120.642 127.505 118.675C128.583 116.713 130.061 115.205 131.949 114.154C133.845 113.093 136.039 112.561 138.531 112.561C141.292 112.561 143.532 113.173 145.243 114.393C146.954 115.618 147.809 117.341 147.809 119.572C147.809 121.076 147.46 122.32 146.768 123.316C146.07 124.302 145.15 125.079 143.997 125.647C142.844 126.219 141.561 126.613 140.148 126.822C138.735 127.036 137.294 127.091 135.835 126.981C134.384 126.862 133.036 126.638 131.8 126.304V126.802C131.823 128.386 132.065 129.825 132.525 131.124C132.981 132.429 133.659 133.47 134.552 134.251C135.444 135.038 136.56 135.427 137.899 135.427C138.74 135.427 139.502 135.257 140.186 134.909C140.878 134.565 141.399 133.968 141.747 133.116C142.091 132.255 142.161 131.06 141.952 129.531L147.865 128.216C148.014 129.969 147.725 131.582 147.009 133.056C146.303 134.53 145.197 135.705 143.7 136.582C142.198 137.458 140.325 137.896 138.084 137.896ZM131.893 123.814C135.077 124.626 137.536 124.611 139.274 123.774C141.022 122.928 141.896 121.544 141.896 119.632C141.896 118.173 141.566 117.042 140.911 116.245C140.265 115.449 139.228 115.05 137.806 115.05C135.858 115.05 134.422 115.817 133.492 117.341C132.571 118.87 132.042 121.026 131.893 123.814Z" fill="black"/>
<path d="M162.104 137.896C160.18 137.896 158.423 137.418 156.824 136.462C155.234 135.506 153.96 134.087 152.993 132.2C152.027 130.317 151.543 127.992 151.543 125.228C151.543 122.44 152.027 120.109 152.993 118.237C153.96 116.365 155.234 114.95 156.824 113.994C158.423 113.038 160.18 112.56 162.104 112.56C163.973 112.56 165.684 112.998 167.236 113.875C168.784 114.751 170.03 116.021 170.973 117.679H171.327V108.178C171.327 106.52 171.15 105.385 170.806 104.772C170.458 104.15 169.876 103.836 169.058 103.836V102.322H172.108C173.321 102.322 174.302 102.412 175.046 102.581C175.789 102.741 176.338 103.134 176.7 103.756C177.058 104.369 177.24 105.34 177.24 106.664V131.562C177.24 133.225 177.416 134.366 177.779 134.988C178.151 135.601 178.732 135.904 179.527 135.904V137.418H176.477C174.715 137.418 173.414 137.239 172.573 136.88C171.74 136.522 171.327 135.546 171.327 133.952V132.797H170.973C170.03 134.445 168.784 135.705 167.236 136.582C165.684 137.458 163.973 137.896 162.104 137.896ZM164.15 135.426C166.39 135.426 168.091 134.52 169.244 132.698C170.397 130.88 170.973 128.39 170.973 125.228C170.973 122.081 170.397 119.601 169.244 117.779C168.091 115.961 166.39 115.05 164.15 115.05C162.016 115.05 160.417 115.946 159.352 117.739C158.297 119.522 157.772 122.016 157.772 125.228C157.772 128.455 158.297 130.965 159.352 132.757C160.417 134.54 162.016 135.426 164.15 135.426Z" fill="black"/>
</svg>
